<?xml version="1.0" encoding="UTF-8" standalone="no"?>
<!DOCTYPE svg PUBLIC "-//W3C//DTD SVG 1.1//EN"
 "http://www.w3.org/Graphics/SVG/1.1/DTD/svg11.dtd">
<!-- Generated by graphviz version 2.36.0 (20140111.2315)
 -->
<!-- Title: controllers_diagram Pages: 1 -->
<svg width="981pt" height="1132pt"
 viewBox="0.00 0.00 981.00 1132.00" xmlns="http://www.w3.org/2000/svg" xmlns:xlink="http://www.w3.org/1999/xlink">
<g id="graph0" class="graph" transform="scale(1 1) rotate(0) translate(4 1128)">
<title>controllers_diagram</title>
<polygon fill="white" stroke="none" points="-4,4 -4,-1128 977,-1128 977,4 -4,4"/>
<!-- _diagram_info -->
<g id="node1" class="node"><title>_diagram_info</title>
<text text-anchor="start" x="96" y="-173.6" font-family="Times,serif" font-size="13.00">Controllers diagram</text>
<text text-anchor="start" x="96" y="-159.6" font-family="Times,serif" font-size="13.00">Date: Jun 15 2015 &#45; 17:39</text>
<text text-anchor="start" x="96" y="-145.6" font-family="Times,serif" font-size="13.00">Migration version: 20150611222411</text>
<text text-anchor="start" x="96" y="-131.6" font-family="Times,serif" font-size="13.00">Generated by RailRoady 1.3.0</text>
<text text-anchor="start" x="96" y="-117.6" font-family="Times,serif" font-size="13.00">http://railroady.prestonlee.com</text>
</g>
<!-- SurveysController -->
<g id="node2" class="node"><title>SurveysController</title>
<path fill="none" stroke="black" d="M232,-506.5C232,-506.5 349,-506.5 349,-506.5 355,-506.5 361,-512.5 361,-518.5 361,-518.5 361,-857.5 361,-857.5 361,-863.5 355,-869.5 349,-869.5 349,-869.5 232,-869.5 232,-869.5 226,-869.5 220,-863.5 220,-857.5 220,-857.5 220,-518.5 220,-518.5 220,-512.5 226,-506.5 232,-506.5"/>
<text text-anchor="middle" x="290.5" y="-854.3" font-family="Times,serif" font-size="14.00">SurveysController</text>
<polyline fill="none" stroke="black" points="220,-846.5 361,-846.5 "/>
<text text-anchor="start" x="228" y="-831.3" font-family="Times,serif" font-size="14.00">create</text>
<text text-anchor="start" x="228" y="-816.3" font-family="Times,serif" font-size="14.00">destroy</text>
<text text-anchor="start" x="228" y="-801.3" font-family="Times,serif" font-size="14.00">edit</text>
<text text-anchor="start" x="228" y="-786.3" font-family="Times,serif" font-size="14.00">favorite</text>
<text text-anchor="start" x="228" y="-771.3" font-family="Times,serif" font-size="14.00">favorites</text>
<text text-anchor="start" x="228" y="-756.3" font-family="Times,serif" font-size="14.00">index</text>
<text text-anchor="start" x="228" y="-741.3" font-family="Times,serif" font-size="14.00">new</text>
<text text-anchor="start" x="228" y="-726.3" font-family="Times,serif" font-size="14.00">popular</text>
<text text-anchor="start" x="228" y="-711.3" font-family="Times,serif" font-size="14.00">update</text>
<polyline fill="none" stroke="black" points="220,-703.5 361,-703.5 "/>
<polyline fill="none" stroke="black" points="220,-679.5 361,-679.5 "/>
<text text-anchor="start" x="228" y="-664.3" font-family="Times,serif" font-size="14.00">_layout</text>
<text text-anchor="start" x="228" y="-649.3" font-family="Times,serif" font-size="14.00">build_quiz</text>
<text text-anchor="start" x="228" y="-634.3" font-family="Times,serif" font-size="14.00">default_redirect</text>
<text text-anchor="start" x="228" y="-619.3" font-family="Times,serif" font-size="14.00">load_categories</text>
<text text-anchor="start" x="228" y="-604.3" font-family="Times,serif" font-size="14.00">load_favorites_quizzes</text>
<text text-anchor="start" x="228" y="-589.3" font-family="Times,serif" font-size="14.00">load_index_quizzes</text>
<text text-anchor="start" x="228" y="-574.3" font-family="Times,serif" font-size="14.00">load_popular_quizzes</text>
<text text-anchor="start" x="228" y="-559.3" font-family="Times,serif" font-size="14.00">load_quiz</text>
<text text-anchor="start" x="228" y="-544.3" font-family="Times,serif" font-size="14.00">quiz_params</text>
<text text-anchor="start" x="228" y="-529.3" font-family="Times,serif" font-size="14.00">quiz_scope</text>
<text text-anchor="start" x="228" y="-514.3" font-family="Times,serif" font-size="14.00">save_quiz</text>
</g>
<!-- RegistrationsController -->
<g id="node3" class="node"><title>RegistrationsController</title>
<path fill="none" stroke="black" d="M56,-748.5C56,-748.5 175,-748.5 175,-748.5 181,-748.5 187,-754.5 187,-760.5 187,-760.5 187,-858.5 187,-858.5 187,-864.5 181,-870.5 175,-870.5 175,-870.5 56,-870.5 56,-870.5 50,-870.5 44,-864.5 44,-858.5 44,-858.5 44,-760.5 44,-760.5 44,-754.5 50,-748.5 56,-748.5"/>
<text text-anchor="middle" x="115.5" y="-855.3" font-family="Times,serif" font-size="14.00">RegistrationsController</text>
<polyline fill="none" stroke="black" points="44,-847.5 187,-847.5 "/>
<text text-anchor="start" x="52" y="-832.3" font-family="Times,serif" font-size="14.00">destroy</text>
<text text-anchor="start" x="52" y="-817.3" font-family="Times,serif" font-size="14.00">edit</text>
<text text-anchor="start" x="52" y="-802.3" font-family="Times,serif" font-size="14.00">update</text>
<polyline fill="none" stroke="black" points="44,-794.5 187,-794.5 "/>
<text text-anchor="start" x="52" y="-779.3" font-family="Times,serif" font-size="14.00">after_update_path_for</text>
<polyline fill="none" stroke="black" points="44,-771.5 187,-771.5 "/>
<text text-anchor="start" x="52" y="-756.3" font-family="Times,serif" font-size="14.00">_layout</text>
</g>
<!-- PagesController -->
<g id="node4" class="node"><title>PagesController</title>
<path fill="none" stroke="black" d="M804,-0.5C804,-0.5 884,-0.5 884,-0.5 890,-0.5 896,-6.5 896,-12.5 896,-12.5 896,-96.5 896,-96.5 896,-102.5 890,-108.5 884,-108.5 884,-108.5 804,-108.5 804,-108.5 798,-108.5 792,-102.5 792,-96.5 792,-96.5 792,-12.5 792,-12.5 792,-6.5 798,-0.5 804,-0.5"/>
<text text-anchor="middle" x="844" y="-93.3" font-family="Times,serif" font-size="14.00">PagesController</text>
<polyline fill="none" stroke="black" points="792,-85.5 896,-85.5 "/>
<text text-anchor="start" x="800" y="-70.3" font-family="Times,serif" font-size="14.00">dashboard</text>
<text text-anchor="start" x="800" y="-55.3" font-family="Times,serif" font-size="14.00">landing</text>
<polyline fill="none" stroke="black" points="792,-47.5 896,-47.5 "/>
<polyline fill="none" stroke="black" points="792,-23.5 896,-23.5 "/>
<text text-anchor="start" x="800" y="-8.3" font-family="Times,serif" font-size="14.00">_layout</text>
</g>
<!-- ApplicationController -->
<g id="node5" class="node"><title>ApplicationController</title>
<path fill="none" stroke="black" d="M210,-902.5C210,-902.5 380,-902.5 380,-902.5 386,-902.5 392,-908.5 392,-914.5 392,-914.5 392,-1042.5 392,-1042.5 392,-1048.5 386,-1054.5 380,-1054.5 380,-1054.5 210,-1054.5 210,-1054.5 204,-1054.5 198,-1048.5 198,-1042.5 198,-1042.5 198,-914.5 198,-914.5 198,-908.5 204,-902.5 210,-902.5"/>
<text text-anchor="middle" x="295" y="-1039.3" font-family="Times,serif" font-size="14.00">ApplicationController</text>
<polyline fill="none" stroke="black" points="198,-1031.5 392,-1031.5 "/>
<text text-anchor="start" x="206" y="-1016.3" font-family="Times,serif" font-size="14.00">search_objects_type</text>
<polyline fill="none" stroke="black" points="198,-1008.5 392,-1008.5 "/>
<text text-anchor="start" x="206" y="-993.3" font-family="Times,serif" font-size="14.00">after_sign_in_path_for</text>
<text text-anchor="start" x="206" y="-978.3" font-family="Times,serif" font-size="14.00">after_sign_out_path_for</text>
<text text-anchor="start" x="206" y="-963.3" font-family="Times,serif" font-size="14.00">configure_permitted_parameters</text>
<polyline fill="none" stroke="black" points="198,-955.5 392,-955.5 "/>
<text text-anchor="start" x="206" y="-940.3" font-family="Times,serif" font-size="14.00">_layout</text>
<text text-anchor="start" x="206" y="-925.3" font-family="Times,serif" font-size="14.00">destroy_activity</text>
<text text-anchor="start" x="206" y="-910.3" font-family="Times,serif" font-size="14.00">track_activity</text>
</g>
<!-- AttemptsController -->
<g id="node6" class="node"><title>AttemptsController</title>
<path fill="none" stroke="black" d="M210,-220.5C210,-220.5 340,-220.5 340,-220.5 346,-220.5 352,-226.5 352,-232.5 352,-232.5 352,-451.5 352,-451.5 352,-457.5 346,-463.5 340,-463.5 340,-463.5 210,-463.5 210,-463.5 204,-463.5 198,-457.5 198,-451.5 198,-451.5 198,-232.5 198,-232.5 198,-226.5 204,-220.5 210,-220.5"/>
<text text-anchor="middle" x="275" y="-448.3" font-family="Times,serif" font-size="14.00">AttemptsController</text>
<polyline fill="none" stroke="black" points="198,-440.5 352,-440.5 "/>
<text text-anchor="start" x="206" y="-425.3" font-family="Times,serif" font-size="14.00">create</text>
<text text-anchor="start" x="206" y="-410.3" font-family="Times,serif" font-size="14.00">delete_user_attempts</text>
<text text-anchor="start" x="206" y="-395.3" font-family="Times,serif" font-size="14.00">new</text>
<text text-anchor="start" x="206" y="-380.3" font-family="Times,serif" font-size="14.00">show</text>
<polyline fill="none" stroke="black" points="198,-372.5 352,-372.5 "/>
<polyline fill="none" stroke="black" points="198,-348.5 352,-348.5 "/>
<text text-anchor="start" x="206" y="-333.3" font-family="Times,serif" font-size="14.00">_layout</text>
<text text-anchor="start" x="206" y="-318.3" font-family="Times,serif" font-size="14.00">attempt_params</text>
<text text-anchor="start" x="206" y="-303.3" font-family="Times,serif" font-size="14.00">load_full_attempt</text>
<text text-anchor="start" x="206" y="-288.3" font-family="Times,serif" font-size="14.00">load_full_quiz</text>
<text text-anchor="start" x="206" y="-273.3" font-family="Times,serif" font-size="14.00">load_quiz</text>
<text text-anchor="start" x="206" y="-258.3" font-family="Times,serif" font-size="14.00">normalize_attempts_data</text>
<text text-anchor="start" x="206" y="-243.3" font-family="Times,serif" font-size="14.00">normalize_data!</text>
<text text-anchor="start" x="206" y="-228.3" font-family="Times,serif" font-size="14.00">record_user_view</text>
</g>
<!-- ReviewsController -->
<g id="node7" class="node"><title>ReviewsController</title>
<path fill="none" stroke="black" d="M848,-154.5C848,-154.5 946,-154.5 946,-154.5 952,-154.5 958,-160.5 958,-166.5 958,-166.5 958,-400.5 958,-400.5 958,-406.5 952,-412.5 946,-412.5 946,-412.5 848,-412.5 848,-412.5 842,-412.5 836,-406.5 836,-400.5 836,-400.5 836,-166.5 836,-166.5 836,-160.5 842,-154.5 848,-154.5"/>
<text text-anchor="middle" x="897" y="-397.3" font-family="Times,serif" font-size="14.00">ReviewsController</text>
<polyline fill="none" stroke="black" points="836,-389.5 958,-389.5 "/>
<text text-anchor="start" x="844" y="-374.3" font-family="Times,serif" font-size="14.00">create</text>
<text text-anchor="start" x="844" y="-359.3" font-family="Times,serif" font-size="14.00">destroy</text>
<text text-anchor="start" x="844" y="-344.3" font-family="Times,serif" font-size="14.00">downvote</text>
<text text-anchor="start" x="844" y="-329.3" font-family="Times,serif" font-size="14.00">new</text>
<text text-anchor="start" x="844" y="-314.3" font-family="Times,serif" font-size="14.00">update</text>
<text text-anchor="start" x="844" y="-299.3" font-family="Times,serif" font-size="14.00">upvote</text>
<polyline fill="none" stroke="black" points="836,-291.5 958,-291.5 "/>
<polyline fill="none" stroke="black" points="836,-267.5 958,-267.5 "/>
<text text-anchor="start" x="844" y="-252.3" font-family="Times,serif" font-size="14.00">_layout</text>
<text text-anchor="start" x="844" y="-237.3" font-family="Times,serif" font-size="14.00">build_review</text>
<text text-anchor="start" x="844" y="-222.3" font-family="Times,serif" font-size="14.00">load_course</text>
<text text-anchor="start" x="844" y="-207.3" font-family="Times,serif" font-size="14.00">load_review</text>
<text text-anchor="start" x="844" y="-192.3" font-family="Times,serif" font-size="14.00">load_single_review</text>
<text text-anchor="start" x="844" y="-177.3" font-family="Times,serif" font-size="14.00">review_params</text>
<text text-anchor="start" x="844" y="-162.3" font-family="Times,serif" font-size="14.00">review_scope</text>
</g>
<!-- ArticlesController -->
<g id="node8" class="node"><title>ArticlesController</title>
<path fill="none" stroke="black" d="M408,-176.5C408,-176.5 557,-176.5 557,-176.5 563,-176.5 569,-182.5 569,-188.5 569,-188.5 569,-827.5 569,-827.5 569,-833.5 563,-839.5 557,-839.5 557,-839.5 408,-839.5 408,-839.5 402,-839.5 396,-833.5 396,-827.5 396,-827.5 396,-188.5 396,-188.5 396,-182.5 402,-176.5 408,-176.5"/>
<text text-anchor="middle" x="482.5" y="-824.3" font-family="Times,serif" font-size="14.00">ArticlesController</text>
<polyline fill="none" stroke="black" points="396,-816.5 569,-816.5 "/>
<text text-anchor="start" x="404" y="-801.3" font-family="Times,serif" font-size="14.00">create</text>
<text text-anchor="start" x="404" y="-786.3" font-family="Times,serif" font-size="14.00">destroy</text>
<text text-anchor="start" x="404" y="-771.3" font-family="Times,serif" font-size="14.00">edit</text>
<text text-anchor="start" x="404" y="-756.3" font-family="Times,serif" font-size="14.00">favorite</text>
<text text-anchor="start" x="404" y="-741.3" font-family="Times,serif" font-size="14.00">favorites</text>
<text text-anchor="start" x="404" y="-726.3" font-family="Times,serif" font-size="14.00">index</text>
<text text-anchor="start" x="404" y="-711.3" font-family="Times,serif" font-size="14.00">like</text>
<text text-anchor="start" x="404" y="-696.3" font-family="Times,serif" font-size="14.00">mine</text>
<text text-anchor="start" x="404" y="-681.3" font-family="Times,serif" font-size="14.00">new</text>
<text text-anchor="start" x="404" y="-666.3" font-family="Times,serif" font-size="14.00">popular</text>
<text text-anchor="start" x="404" y="-651.3" font-family="Times,serif" font-size="14.00">recommended</text>
<text text-anchor="start" x="404" y="-636.3" font-family="Times,serif" font-size="14.00">show</text>
<text text-anchor="start" x="404" y="-621.3" font-family="Times,serif" font-size="14.00">sort</text>
<text text-anchor="start" x="404" y="-606.3" font-family="Times,serif" font-size="14.00">top</text>
<text text-anchor="start" x="404" y="-591.3" font-family="Times,serif" font-size="14.00">update</text>
<text text-anchor="start" x="404" y="-576.3" font-family="Times,serif" font-size="14.00">update_sections</text>
<polyline fill="none" stroke="black" points="396,-568.5 569,-568.5 "/>
<polyline fill="none" stroke="black" points="396,-544.5 569,-544.5 "/>
<text text-anchor="start" x="404" y="-529.3" font-family="Times,serif" font-size="14.00">_layout</text>
<text text-anchor="start" x="404" y="-514.3" font-family="Times,serif" font-size="14.00">article_params</text>
<text text-anchor="start" x="404" y="-499.3" font-family="Times,serif" font-size="14.00">article_scope</text>
<text text-anchor="start" x="404" y="-484.3" font-family="Times,serif" font-size="14.00">build_article</text>
<text text-anchor="start" x="404" y="-469.3" font-family="Times,serif" font-size="14.00">check_enrollment</text>
<text text-anchor="start" x="404" y="-454.3" font-family="Times,serif" font-size="14.00">load_article</text>
<text text-anchor="start" x="404" y="-439.3" font-family="Times,serif" font-size="14.00">load_article_with_categories</text>
<text text-anchor="start" x="404" y="-424.3" font-family="Times,serif" font-size="14.00">load_articles</text>
<text text-anchor="start" x="404" y="-409.3" font-family="Times,serif" font-size="14.00">load_categories</text>
<text text-anchor="start" x="404" y="-394.3" font-family="Times,serif" font-size="14.00">load_comments</text>
<text text-anchor="start" x="404" y="-379.3" font-family="Times,serif" font-size="14.00">load_course_articles</text>
<text text-anchor="start" x="404" y="-364.3" font-family="Times,serif" font-size="14.00">load_favorites_articles</text>
<text text-anchor="start" x="404" y="-349.3" font-family="Times,serif" font-size="14.00">load_index_articles</text>
<text text-anchor="start" x="404" y="-334.3" font-family="Times,serif" font-size="14.00">load_mine_articles</text>
<text text-anchor="start" x="404" y="-319.3" font-family="Times,serif" font-size="14.00">load_popular_articles</text>
<text text-anchor="start" x="404" y="-304.3" font-family="Times,serif" font-size="14.00">load_recommended_articles</text>
<text text-anchor="start" x="404" y="-289.3" font-family="Times,serif" font-size="14.00">load_top_articles</text>
<text text-anchor="start" x="404" y="-274.3" font-family="Times,serif" font-size="14.00">record_article_progress</text>
<text text-anchor="start" x="404" y="-259.3" font-family="Times,serif" font-size="14.00">record_user_view</text>
<text text-anchor="start" x="404" y="-244.3" font-family="Times,serif" font-size="14.00">save_article</text>
<text text-anchor="start" x="404" y="-229.3" font-family="Times,serif" font-size="14.00">set_commentable</text>
<text text-anchor="start" x="404" y="-214.3" font-family="Times,serif" font-size="14.00">set_page_params</text>
<text text-anchor="start" x="404" y="-199.3" font-family="Times,serif" font-size="14.00">set_page_size</text>
<text text-anchor="start" x="404" y="-184.3" font-family="Times,serif" font-size="14.00">user_progress</text>
</g>
<!-- UsersController -->
<g id="node9" class="node"><title>UsersController</title>
<path fill="none" stroke="black" d="M848,-462.5C848,-462.5 937,-462.5 937,-462.5 943,-462.5 949,-468.5 949,-474.5 949,-474.5 949,-723.5 949,-723.5 949,-729.5 943,-735.5 937,-735.5 937,-735.5 848,-735.5 848,-735.5 842,-735.5 836,-729.5 836,-723.5 836,-723.5 836,-474.5 836,-474.5 836,-468.5 842,-462.5 848,-462.5"/>
<text text-anchor="middle" x="892.5" y="-720.3" font-family="Times,serif" font-size="14.00">UsersController</text>
<polyline fill="none" stroke="black" points="836,-712.5 949,-712.5 "/>
<text text-anchor="start" x="844" y="-697.3" font-family="Times,serif" font-size="14.00">answers</text>
<text text-anchor="start" x="844" y="-682.3" font-family="Times,serif" font-size="14.00">articles</text>
<text text-anchor="start" x="844" y="-667.3" font-family="Times,serif" font-size="14.00">comments</text>
<text text-anchor="start" x="844" y="-652.3" font-family="Times,serif" font-size="14.00">courses</text>
<text text-anchor="start" x="844" y="-637.3" font-family="Times,serif" font-size="14.00">questions</text>
<text text-anchor="start" x="844" y="-622.3" font-family="Times,serif" font-size="14.00">reviews</text>
<text text-anchor="start" x="844" y="-607.3" font-family="Times,serif" font-size="14.00">show</text>
<polyline fill="none" stroke="black" points="836,-599.5 949,-599.5 "/>
<polyline fill="none" stroke="black" points="836,-575.5 949,-575.5 "/>
<text text-anchor="start" x="844" y="-560.3" font-family="Times,serif" font-size="14.00">_layout</text>
<text text-anchor="start" x="844" y="-545.3" font-family="Times,serif" font-size="14.00">courses_scope</text>
<text text-anchor="start" x="844" y="-530.3" font-family="Times,serif" font-size="14.00">load_categories</text>
<text text-anchor="start" x="844" y="-515.3" font-family="Times,serif" font-size="14.00">load_user</text>
<text text-anchor="start" x="844" y="-500.3" font-family="Times,serif" font-size="14.00">record_user_view</text>
<text text-anchor="start" x="844" y="-485.3" font-family="Times,serif" font-size="14.00">set_page_params</text>
<text text-anchor="start" x="844" y="-470.3" font-family="Times,serif" font-size="14.00">set_page_size</text>
</g>
<!-- SubscriptionsController -->
<g id="node10" class="node"><title>SubscriptionsController</title>
<path fill="none" stroke="black" d="M12,-990.5C12,-990.5 134,-990.5 134,-990.5 140,-990.5 146,-996.5 146,-1002.5 146,-1002.5 146,-1101.5 146,-1101.5 146,-1107.5 140,-1113.5 134,-1113.5 134,-1113.5 12,-1113.5 12,-1113.5 6,-1113.5 0,-1107.5 0,-1101.5 0,-1101.5 0,-1002.5 0,-1002.5 0,-996.5 6,-990.5 12,-990.5"/>
<text text-anchor="middle" x="73" y="-1098.3" font-family="Times,serif" font-size="14.00">SubscriptionsController</text>
<polyline fill="none" stroke="black" points="0,-1090.5 146,-1090.5 "/>
<text text-anchor="start" x="8" y="-1075.3" font-family="Times,serif" font-size="14.00">index</text>
<text text-anchor="start" x="8" y="-1060.3" font-family="Times,serif" font-size="14.00">toggle</text>
<polyline fill="none" stroke="black" points="0,-1052.5 146,-1052.5 "/>
<polyline fill="none" stroke="black" points="0,-1028.5 146,-1028.5 "/>
<text text-anchor="start" x="8" y="-1013.3" font-family="Times,serif" font-size="14.00">_layout</text>
<text text-anchor="start" x="8" y="-998.3" font-family="Times,serif" font-size="14.00">load_subscribable</text>
</g>
<!-- ActivitiesController -->
<g id="node11" class="node"><title>ActivitiesController</title>
<path fill="none" stroke="black" d="M628,-132.5C628,-132.5 729,-132.5 729,-132.5 735,-132.5 741,-138.5 741,-144.5 741,-144.5 741,-318.5 741,-318.5 741,-324.5 735,-330.5 729,-330.5 729,-330.5 628,-330.5 628,-330.5 622,-330.5 616,-324.5 616,-318.5 616,-318.5 616,-144.5 616,-144.5 616,-138.5 622,-132.5 628,-132.5"/>
<text text-anchor="middle" x="678.5" y="-315.3" font-family="Times,serif" font-size="14.00">ActivitiesController</text>
<polyline fill="none" stroke="black" points="616,-307.5 741,-307.5 "/>
<text text-anchor="start" x="624" y="-292.3" font-family="Times,serif" font-size="14.00">answers</text>
<text text-anchor="start" x="624" y="-277.3" font-family="Times,serif" font-size="14.00">articles</text>
<text text-anchor="start" x="624" y="-262.3" font-family="Times,serif" font-size="14.00">comments</text>
<text text-anchor="start" x="624" y="-247.3" font-family="Times,serif" font-size="14.00">courses</text>
<text text-anchor="start" x="624" y="-232.3" font-family="Times,serif" font-size="14.00">feed</text>
<text text-anchor="start" x="624" y="-217.3" font-family="Times,serif" font-size="14.00">personal</text>
<text text-anchor="start" x="624" y="-202.3" font-family="Times,serif" font-size="14.00">questions</text>
<text text-anchor="start" x="624" y="-187.3" font-family="Times,serif" font-size="14.00">users</text>
<polyline fill="none" stroke="black" points="616,-179.5 741,-179.5 "/>
<polyline fill="none" stroke="black" points="616,-155.5 741,-155.5 "/>
<text text-anchor="start" x="624" y="-140.3" font-family="Times,serif" font-size="14.00">_layout</text>
</g>
<!-- CoursesController -->
<g id="node12" class="node"><title>CoursesController</title>
<path fill="none" stroke="black" d="M628,-374.5C628,-374.5 776,-374.5 776,-374.5 782,-374.5 788,-380.5 788,-386.5 788,-386.5 788,-965.5 788,-965.5 788,-971.5 782,-977.5 776,-977.5 776,-977.5 628,-977.5 628,-977.5 622,-977.5 616,-971.5 616,-965.5 616,-965.5 616,-386.5 616,-386.5 616,-380.5 622,-374.5 628,-374.5"/>
<text text-anchor="middle" x="702" y="-962.3" font-family="Times,serif" font-size="14.00">CoursesController</text>
<polyline fill="none" stroke="black" points="616,-954.5 788,-954.5 "/>
<text text-anchor="start" x="624" y="-939.3" font-family="Times,serif" font-size="14.00">active</text>
<text text-anchor="start" x="624" y="-924.3" font-family="Times,serif" font-size="14.00">completed</text>
<text text-anchor="start" x="624" y="-909.3" font-family="Times,serif" font-size="14.00">continue_course</text>
<text text-anchor="start" x="624" y="-894.3" font-family="Times,serif" font-size="14.00">create</text>
<text text-anchor="start" x="624" y="-879.3" font-family="Times,serif" font-size="14.00">curriculum</text>
<text text-anchor="start" x="624" y="-864.3" font-family="Times,serif" font-size="14.00">destroy</text>
<text text-anchor="start" x="624" y="-849.3" font-family="Times,serif" font-size="14.00">edit</text>
<text text-anchor="start" x="624" y="-834.3" font-family="Times,serif" font-size="14.00">favorite</text>
<text text-anchor="start" x="624" y="-819.3" font-family="Times,serif" font-size="14.00">favorites</text>
<text text-anchor="start" x="624" y="-804.3" font-family="Times,serif" font-size="14.00">index</text>
<text text-anchor="start" x="624" y="-789.3" font-family="Times,serif" font-size="14.00">mine</text>
<text text-anchor="start" x="624" y="-774.3" font-family="Times,serif" font-size="14.00">new</text>
<text text-anchor="start" x="624" y="-759.3" font-family="Times,serif" font-size="14.00">popular</text>
<text text-anchor="start" x="624" y="-744.3" font-family="Times,serif" font-size="14.00">recommended</text>
<text text-anchor="start" x="624" y="-729.3" font-family="Times,serif" font-size="14.00">show</text>
<text text-anchor="start" x="624" y="-714.3" font-family="Times,serif" font-size="14.00">update</text>
<polyline fill="none" stroke="black" points="616,-706.5 788,-706.5 "/>
<polyline fill="none" stroke="black" points="616,-682.5 788,-682.5 "/>
<text text-anchor="start" x="624" y="-667.3" font-family="Times,serif" font-size="14.00">_layout</text>
<text text-anchor="start" x="624" y="-652.3" font-family="Times,serif" font-size="14.00">build_course</text>
<text text-anchor="start" x="624" y="-637.3" font-family="Times,serif" font-size="14.00">check_enrollment</text>
<text text-anchor="start" x="624" y="-622.3" font-family="Times,serif" font-size="14.00">course_params</text>
<text text-anchor="start" x="624" y="-607.3" font-family="Times,serif" font-size="14.00">course_scope</text>
<text text-anchor="start" x="624" y="-592.3" font-family="Times,serif" font-size="14.00">load_active_courses</text>
<text text-anchor="start" x="624" y="-577.3" font-family="Times,serif" font-size="14.00">load_categories</text>
<text text-anchor="start" x="624" y="-562.3" font-family="Times,serif" font-size="14.00">load_completed_courses</text>
<text text-anchor="start" x="624" y="-547.3" font-family="Times,serif" font-size="14.00">load_favorites_courses</text>
<text text-anchor="start" x="624" y="-532.3" font-family="Times,serif" font-size="14.00">load_full_course</text>
<text text-anchor="start" x="624" y="-517.3" font-family="Times,serif" font-size="14.00">load_index_courses</text>
<text text-anchor="start" x="624" y="-502.3" font-family="Times,serif" font-size="14.00">load_mine_courses</text>
<text text-anchor="start" x="624" y="-487.3" font-family="Times,serif" font-size="14.00">load_popular_courses</text>
<text text-anchor="start" x="624" y="-472.3" font-family="Times,serif" font-size="14.00">load_recommended_courses</text>
<text text-anchor="start" x="624" y="-457.3" font-family="Times,serif" font-size="14.00">load_single_course</text>
<text text-anchor="start" x="624" y="-442.3" font-family="Times,serif" font-size="14.00">record_user_view</text>
<text text-anchor="start" x="624" y="-427.3" font-family="Times,serif" font-size="14.00">save_course</text>
<text text-anchor="start" x="624" y="-412.3" font-family="Times,serif" font-size="14.00">set_page_params</text>
<text text-anchor="start" x="624" y="-397.3" font-family="Times,serif" font-size="14.00">set_page_size</text>
<text text-anchor="start" x="624" y="-382.3" font-family="Times,serif" font-size="14.00">user_progress</text>
</g>
<!-- CategoriesController -->
<g id="node13" class="node"><title>CategoriesController</title>
<path fill="none" stroke="black" d="M452,-880.5C452,-880.5 558,-880.5 558,-880.5 564,-880.5 570,-886.5 570,-892.5 570,-892.5 570,-1111.5 570,-1111.5 570,-1117.5 564,-1123.5 558,-1123.5 558,-1123.5 452,-1123.5 452,-1123.5 446,-1123.5 440,-1117.5 440,-1111.5 440,-1111.5 440,-892.5 440,-892.5 440,-886.5 446,-880.5 452,-880.5"/>
<text text-anchor="middle" x="505" y="-1108.3" font-family="Times,serif" font-size="14.00">CategoriesController</text>
<polyline fill="none" stroke="black" points="440,-1100.5 570,-1100.5 "/>
<text text-anchor="start" x="448" y="-1085.3" font-family="Times,serif" font-size="14.00">articles</text>
<text text-anchor="start" x="448" y="-1070.3" font-family="Times,serif" font-size="14.00">index</text>
<text text-anchor="start" x="448" y="-1055.3" font-family="Times,serif" font-size="14.00">questions</text>
<text text-anchor="start" x="448" y="-1040.3" font-family="Times,serif" font-size="14.00">quizzes</text>
<text text-anchor="start" x="448" y="-1025.3" font-family="Times,serif" font-size="14.00">show</text>
<polyline fill="none" stroke="black" points="440,-1017.5 570,-1017.5 "/>
<polyline fill="none" stroke="black" points="440,-993.5 570,-993.5 "/>
<text text-anchor="start" x="448" y="-978.3" font-family="Times,serif" font-size="14.00">_layout</text>
<text text-anchor="start" x="448" y="-963.3" font-family="Times,serif" font-size="14.00">load_articles</text>
<text text-anchor="start" x="448" y="-948.3" font-family="Times,serif" font-size="14.00">load_category</text>
<text text-anchor="start" x="448" y="-933.3" font-family="Times,serif" font-size="14.00">load_courses</text>
<text text-anchor="start" x="448" y="-918.3" font-family="Times,serif" font-size="14.00">load_quizzes</text>
<text text-anchor="start" x="448" y="-903.3" font-family="Times,serif" font-size="14.00">set_page_params</text>
<text text-anchor="start" x="448" y="-888.3" font-family="Times,serif" font-size="14.00">set_page_size</text>
</g>
<!-- ArticleProgressesController -->
<g id="node14" class="node"><title>ArticleProgressesController</title>
<path fill="none" stroke="black" d="M12,-352.5C12,-352.5 155,-352.5 155,-352.5 161,-352.5 167,-358.5 167,-364.5 167,-364.5 167,-448.5 167,-448.5 167,-454.5 161,-460.5 155,-460.5 155,-460.5 12,-460.5 12,-460.5 6,-460.5 0,-454.5 0,-448.5 0,-448.5 0,-364.5 0,-364.5 0,-358.5 6,-352.5 12,-352.5"/>
<text text-anchor="middle" x="83.5" y="-445.3" font-family="Times,serif" font-size="14.00">ArticleProgressesController</text>
<polyline fill="none" stroke="black" points="0,-437.5 167,-437.5 "/>
<text text-anchor="start" x="8" y="-422.3" font-family="Times,serif" font-size="14.00">create</text>
<text text-anchor="start" x="8" y="-407.3" font-family="Times,serif" font-size="14.00">destroy</text>
<polyline fill="none" stroke="black" points="0,-399.5 167,-399.5 "/>
<polyline fill="none" stroke="black" points="0,-375.5 167,-375.5 "/>
<text text-anchor="start" x="8" y="-360.3" font-family="Times,serif" font-size="14.00">_layout</text>
</g>
<!-- EnrollmentsController -->
<g id="node15" class="node"><title>EnrollmentsController</title>
<path fill="none" stroke="black" d="M364,-22.5C364,-22.5 479,-22.5 479,-22.5 485,-22.5 491,-28.5 491,-34.5 491,-34.5 491,-118.5 491,-118.5 491,-124.5 485,-130.5 479,-130.5 479,-130.5 364,-130.5 364,-130.5 358,-130.5 352,-124.5 352,-118.5 352,-118.5 352,-34.5 352,-34.5 352,-28.5 358,-22.5 364,-22.5"/>
<text text-anchor="middle" x="421.5" y="-115.3" font-family="Times,serif" font-size="14.00">EnrollmentsController</text>
<polyline fill="none" stroke="black" points="352,-107.5 491,-107.5 "/>
<text text-anchor="start" x="360" y="-92.3" font-family="Times,serif" font-size="14.00">create</text>
<text text-anchor="start" x="360" y="-77.3" font-family="Times,serif" font-size="14.00">destroy</text>
<polyline fill="none" stroke="black" points="352,-69.5 491,-69.5 "/>
<polyline fill="none" stroke="black" points="352,-45.5 491,-45.5 "/>
<text text-anchor="start" x="360" y="-30.3" font-family="Times,serif" font-size="14.00">_layout</text>
</g>
<!-- CommentsController -->
<g id="node16" class="node"><title>CommentsController</title>
<path fill="none" stroke="black" d="M848,-770.5C848,-770.5 961,-770.5 961,-770.5 967,-770.5 973,-776.5 973,-782.5 973,-782.5 973,-1016.5 973,-1016.5 973,-1022.5 967,-1028.5 961,-1028.5 961,-1028.5 848,-1028.5 848,-1028.5 842,-1028.5 836,-1022.5 836,-1016.5 836,-1016.5 836,-782.5 836,-782.5 836,-776.5 842,-770.5 848,-770.5"/>
<text text-anchor="middle" x="904.5" y="-1013.3" font-family="Times,serif" font-size="14.00">CommentsController</text>
<polyline fill="none" stroke="black" points="836,-1005.5 973,-1005.5 "/>
<text text-anchor="start" x="844" y="-990.3" font-family="Times,serif" font-size="14.00">create</text>
<text text-anchor="start" x="844" y="-975.3" font-family="Times,serif" font-size="14.00">destroy</text>
<text text-anchor="start" x="844" y="-960.3" font-family="Times,serif" font-size="14.00">downvote</text>
<text text-anchor="start" x="844" y="-945.3" font-family="Times,serif" font-size="14.00">new</text>
<text text-anchor="start" x="844" y="-930.3" font-family="Times,serif" font-size="14.00">update</text>
<text text-anchor="start" x="844" y="-915.3" font-family="Times,serif" font-size="14.00">upvote</text>
<polyline fill="none" stroke="black" points="836,-907.5 973,-907.5 "/>
<polyline fill="none" stroke="black" points="836,-883.5 973,-883.5 "/>
<text text-anchor="start" x="844" y="-868.3" font-family="Times,serif" font-size="14.00">_layout</text>
<text text-anchor="start" x="844" y="-853.3" font-family="Times,serif" font-size="14.00">build_comment</text>
<text text-anchor="start" x="844" y="-838.3" font-family="Times,serif" font-size="14.00">comment_params</text>
<text text-anchor="start" x="844" y="-823.3" font-family="Times,serif" font-size="14.00">comment_scope</text>
<text text-anchor="start" x="844" y="-808.3" font-family="Times,serif" font-size="14.00">load_comment</text>
<text text-anchor="start" x="844" y="-793.3" font-family="Times,serif" font-size="14.00">load_commentable</text>
<text text-anchor="start" x="844" y="-778.3" font-family="Times,serif" font-size="14.00">load_single_comment</text>
</g>
<!-- SearchesController -->
<g id="node17" class="node"><title>SearchesController</title>
<path fill="none" stroke="black" d="M78,-506.5C78,-506.5 174,-506.5 174,-506.5 180,-506.5 186,-512.5 186,-518.5 186,-518.5 186,-677.5 186,-677.5 186,-683.5 180,-689.5 174,-689.5 174,-689.5 78,-689.5 78,-689.5 72,-689.5 66,-683.5 66,-677.5 66,-677.5 66,-518.5 66,-518.5 66,-512.5 72,-506.5 78,-506.5"/>
<text text-anchor="middle" x="126" y="-674.3" font-family="Times,serif" font-size="14.00">SearchesController</text>
<polyline fill="none" stroke="black" points="66,-666.5 186,-666.5 "/>
<text text-anchor="start" x="74" y="-651.3" font-family="Times,serif" font-size="14.00">articles</text>
<text text-anchor="start" x="74" y="-636.3" font-family="Times,serif" font-size="14.00">courses</text>
<text text-anchor="start" x="74" y="-621.3" font-family="Times,serif" font-size="14.00">questions</text>
<polyline fill="none" stroke="black" points="66,-613.5 186,-613.5 "/>
<polyline fill="none" stroke="black" points="66,-589.5 186,-589.5 "/>
<text text-anchor="start" x="74" y="-574.3" font-family="Times,serif" font-size="14.00">_layout</text>
<text text-anchor="start" x="74" y="-559.3" font-family="Times,serif" font-size="14.00">load_categories</text>
<text text-anchor="start" x="74" y="-544.3" font-family="Times,serif" font-size="14.00">search</text>
<text text-anchor="start" x="74" y="-529.3" font-family="Times,serif" font-size="14.00">set_course_levels</text>
<text text-anchor="start" x="74" y="-514.3" font-family="Times,serif" font-size="14.00">set_page_params</text>
</g>
</g>
</svg>
