<?xml version="1.0" encoding="UTF-8" standalone="no"?>
<!DOCTYPE svg PUBLIC "-//W3C//DTD SVG 1.1//EN"
 "http://www.w3.org/Graphics/SVG/1.1/DTD/svg11.dtd">
<!-- Generated by graphviz version 2.36.0 (20140111.2315)
 -->
<!-- Title: models_diagram Pages: 1 -->
<svg width="2107pt" height="1996pt"
 viewBox="0.00 0.00 2107.00 1996.00" xmlns="http://www.w3.org/2000/svg" xmlns:xlink="http://www.w3.org/1999/xlink">
<g id="graph0" class="graph" transform="scale(1 1) rotate(0) translate(4 1992)">
<title>models_diagram</title>
<polygon fill="white" stroke="none" points="-4,4 -4,-1992 2103,-1992 2103,4 -4,4"/>
<!-- _diagram_info -->
<g id="node1" class="node"><title>_diagram_info</title>
<text text-anchor="start" x="271" y="-1846.6" font-family="Times,serif" font-size="13.00">Models diagram</text>
<text text-anchor="start" x="271" y="-1832.6" font-family="Times,serif" font-size="13.00">Date: Jun 15 2015 &#45; 17:39</text>
<text text-anchor="start" x="271" y="-1818.6" font-family="Times,serif" font-size="13.00">Migration version: 20150611222411</text>
<text text-anchor="start" x="271" y="-1804.6" font-family="Times,serif" font-size="13.00">Generated by RailRoady 1.3.0</text>
<text text-anchor="start" x="271" y="-1790.6" font-family="Times,serif" font-size="13.00">http://railroady.prestonlee.com</text>
</g>
<!-- View -->
<g id="node2" class="node"><title>View</title>
<path fill="none" stroke="black" d="M306,-38.5C306,-38.5 416,-38.5 416,-38.5 422,-38.5 428,-44.5 428,-50.5 428,-50.5 428,-147.5 428,-147.5 428,-153.5 422,-159.5 416,-159.5 416,-159.5 306,-159.5 306,-159.5 300,-159.5 294,-153.5 294,-147.5 294,-147.5 294,-50.5 294,-50.5 294,-44.5 300,-38.5 306,-38.5"/>
<text text-anchor="middle" x="361" y="-144.3" font-family="Times,serif" font-size="14.00">View</text>
<polyline fill="none" stroke="black" points="294,-136.5 428,-136.5 "/>
<text text-anchor="start" x="302" y="-121.3" font-family="Times,serif" font-size="14.00">id :integer</text>
<text text-anchor="start" x="302" y="-106.3" font-family="Times,serif" font-size="14.00">viewable_id :integer</text>
<text text-anchor="start" x="302" y="-91.3" font-family="Times,serif" font-size="14.00">viewable_type :string</text>
<text text-anchor="start" x="302" y="-76.3" font-family="Times,serif" font-size="14.00">guest_ip :string</text>
<text text-anchor="start" x="302" y="-61.3" font-family="Times,serif" font-size="14.00">created_at :datetime</text>
<text text-anchor="start" x="302" y="-46.3" font-family="Times,serif" font-size="14.00">updated_at :datetime</text>
</g>
<!-- Category -->
<g id="node3" class="node"><title>Category</title>
<path fill="none" stroke="black" d="M995.5,-607C995.5,-607 1130.5,-607 1130.5,-607 1136.5,-607 1142.5,-613 1142.5,-619 1142.5,-619 1142.5,-791 1142.5,-791 1142.5,-797 1136.5,-803 1130.5,-803 1130.5,-803 995.5,-803 995.5,-803 989.5,-803 983.5,-797 983.5,-791 983.5,-791 983.5,-619 983.5,-619 983.5,-613 989.5,-607 995.5,-607"/>
<text text-anchor="middle" x="1063" y="-787.8" font-family="Times,serif" font-size="14.00">Category</text>
<polyline fill="none" stroke="black" points="983.5,-780 1142.5,-780 "/>
<text text-anchor="start" x="991.5" y="-764.8" font-family="Times,serif" font-size="14.00">id :integer</text>
<text text-anchor="start" x="991.5" y="-749.8" font-family="Times,serif" font-size="14.00">name :string</text>
<text text-anchor="start" x="991.5" y="-734.8" font-family="Times,serif" font-size="14.00">description :string</text>
<text text-anchor="start" x="991.5" y="-719.8" font-family="Times,serif" font-size="14.00">parent_id :integer</text>
<text text-anchor="start" x="991.5" y="-704.8" font-family="Times,serif" font-size="14.00">articles_count :integer</text>
<text text-anchor="start" x="991.5" y="-689.8" font-family="Times,serif" font-size="14.00">courses_count :integer</text>
<text text-anchor="start" x="991.5" y="-674.8" font-family="Times,serif" font-size="14.00">created_at :datetime</text>
<text text-anchor="start" x="991.5" y="-659.8" font-family="Times,serif" font-size="14.00">updated_at :datetime</text>
<text text-anchor="start" x="991.5" y="-644.8" font-family="Times,serif" font-size="14.00">slug :string</text>
<text text-anchor="start" x="991.5" y="-629.8" font-family="Times,serif" font-size="14.00">subscribers_count :integer</text>
<text text-anchor="start" x="991.5" y="-614.8" font-family="Times,serif" font-size="14.00">quizzes_count :integer</text>
</g>
<!-- Category&#45;&gt;Category -->
<g id="edge1" class="edge"><title>Category&#45;&gt;Category</title>
<path fill="none" stroke="#0e6c4b" d="M1150.09,-722.01C1156.25,-718.14 1160,-712.47 1160,-705 1160,-698.166 1156.86,-692.838 1151.61,-689.017"/>
<ellipse fill="none" stroke="#0e6c4b" cx="1146.17" cy="-723.824" rx="4.00002" ry="4.00002"/>
<polygon fill="#0e6c4b" stroke="#0e6c4b" points="1151.49,-688.957 1144.55,-680.47 1147.01,-686.727 1142.54,-684.497 1142.54,-684.497 1142.54,-684.497 1147.01,-686.727 1140.53,-688.525 1151.49,-688.957 1151.49,-688.957"/>
<text text-anchor="middle" x="1197" y="-701.3" font-family="Times,serif" font-size="14.00">subcategories</text>
</g>
<!-- Article -->
<g id="node7" class="node"><title>Article</title>
<path fill="none" stroke="black" d="M506.5,-1656.5C506.5,-1656.5 641.5,-1656.5 641.5,-1656.5 647.5,-1656.5 653.5,-1662.5 653.5,-1668.5 653.5,-1668.5 653.5,-1975.5 653.5,-1975.5 653.5,-1981.5 647.5,-1987.5 641.5,-1987.5 641.5,-1987.5 506.5,-1987.5 506.5,-1987.5 500.5,-1987.5 494.5,-1981.5 494.5,-1975.5 494.5,-1975.5 494.5,-1668.5 494.5,-1668.5 494.5,-1662.5 500.5,-1656.5 506.5,-1656.5"/>
<text text-anchor="middle" x="574" y="-1972.3" font-family="Times,serif" font-size="14.00">Article</text>
<polyline fill="none" stroke="black" points="494.5,-1964.5 653.5,-1964.5 "/>
<text text-anchor="start" x="502.5" y="-1949.3" font-family="Times,serif" font-size="14.00">id :integer</text>
<text text-anchor="start" x="502.5" y="-1934.3" font-family="Times,serif" font-size="14.00">title :string</text>
<text text-anchor="start" x="502.5" y="-1919.3" font-family="Times,serif" font-size="14.00">description :string</text>
<text text-anchor="start" x="502.5" y="-1904.3" font-family="Times,serif" font-size="14.00">body :text</text>
<text text-anchor="start" x="502.5" y="-1889.3" font-family="Times,serif" font-size="14.00">course_id :integer</text>
<text text-anchor="start" x="502.5" y="-1874.3" font-family="Times,serif" font-size="14.00">category_id :integer</text>
<text text-anchor="start" x="502.5" y="-1859.3" font-family="Times,serif" font-size="14.00">user_id :integer</text>
<text text-anchor="start" x="502.5" y="-1844.3" font-family="Times,serif" font-size="14.00">created_at :datetime</text>
<text text-anchor="start" x="502.5" y="-1829.3" font-family="Times,serif" font-size="14.00">updated_at :datetime</text>
<text text-anchor="start" x="502.5" y="-1814.3" font-family="Times,serif" font-size="14.00">section_id :integer</text>
<text text-anchor="start" x="502.5" y="-1799.3" font-family="Times,serif" font-size="14.00">youtube_id :string</text>
<text text-anchor="start" x="502.5" y="-1784.3" font-family="Times,serif" font-size="14.00">comments_count :integer</text>
<text text-anchor="start" x="502.5" y="-1769.3" font-family="Times,serif" font-size="14.00">status :string</text>
<text text-anchor="start" x="502.5" y="-1754.3" font-family="Times,serif" font-size="14.00">video_duration :integer</text>
<text text-anchor="start" x="502.5" y="-1739.3" font-family="Times,serif" font-size="14.00">demo_link :string</text>
<text text-anchor="start" x="502.5" y="-1724.3" font-family="Times,serif" font-size="14.00">github_link :string</text>
<text text-anchor="start" x="502.5" y="-1709.3" font-family="Times,serif" font-size="14.00">slug :string</text>
<text text-anchor="start" x="502.5" y="-1694.3" font-family="Times,serif" font-size="14.00">position :integer</text>
<text text-anchor="start" x="502.5" y="-1679.3" font-family="Times,serif" font-size="14.00">views_count :integer</text>
<text text-anchor="start" x="502.5" y="-1664.3" font-family="Times,serif" font-size="14.00">subscribers_count :integer</text>
</g>
<!-- Category&#45;&gt;Article -->
<g id="edge2" class="edge"><title>Category&#45;&gt;Article</title>
<path fill="none" stroke="#766035" d="M975.854,-804.405C901.357,-824.559 542.69,-793.771 500,-822 486.07,-831.212 487.643,-839.702 484,-856 463.896,-945.938 470.329,-1548.59 485,-1618 487.014,-1627.53 489.5,-1637.16 492.345,-1646.78"/>
<ellipse fill="none" stroke="#766035" cx="979.722" cy="-803.028" rx="4.00001" ry="4.00001"/>
<polygon fill="#766035" stroke="#766035" points="492.361,-1646.83 491.005,-1657.71 493.833,-1651.61 495.305,-1656.39 495.305,-1656.39 495.305,-1656.39 493.833,-1651.61 499.606,-1655.06 492.361,-1646.83 492.361,-1646.83"/>
</g>
<!-- Quiz -->
<g id="node8" class="node"><title>Quiz</title>
<path fill="none" stroke="black" d="M505.5,-1376.5C505.5,-1376.5 642.5,-1376.5 642.5,-1376.5 648.5,-1376.5 654.5,-1382.5 654.5,-1388.5 654.5,-1388.5 654.5,-1605.5 654.5,-1605.5 654.5,-1611.5 648.5,-1617.5 642.5,-1617.5 642.5,-1617.5 505.5,-1617.5 505.5,-1617.5 499.5,-1617.5 493.5,-1611.5 493.5,-1605.5 493.5,-1605.5 493.5,-1388.5 493.5,-1388.5 493.5,-1382.5 499.5,-1376.5 505.5,-1376.5"/>
<text text-anchor="middle" x="574" y="-1602.3" font-family="Times,serif" font-size="14.00">Quiz</text>
<polyline fill="none" stroke="black" points="493.5,-1594.5 654.5,-1594.5 "/>
<text text-anchor="start" x="501.5" y="-1579.3" font-family="Times,serif" font-size="14.00">id :integer</text>
<text text-anchor="start" x="501.5" y="-1564.3" font-family="Times,serif" font-size="14.00">name :string</text>
<text text-anchor="start" x="501.5" y="-1549.3" font-family="Times,serif" font-size="14.00">description :text</text>
<text text-anchor="start" x="501.5" y="-1534.3" font-family="Times,serif" font-size="14.00">attempts_number :integer</text>
<text text-anchor="start" x="501.5" y="-1519.3" font-family="Times,serif" font-size="14.00">finished :boolean</text>
<text text-anchor="start" x="501.5" y="-1504.3" font-family="Times,serif" font-size="14.00">active :boolean</text>
<text text-anchor="start" x="501.5" y="-1489.3" font-family="Times,serif" font-size="14.00">created_at :datetime</text>
<text text-anchor="start" x="501.5" y="-1474.3" font-family="Times,serif" font-size="14.00">updated_at :datetime</text>
<text text-anchor="start" x="501.5" y="-1459.3" font-family="Times,serif" font-size="14.00">testable_type :string</text>
<text text-anchor="start" x="501.5" y="-1444.3" font-family="Times,serif" font-size="14.00">testable_id :integer</text>
<text text-anchor="start" x="501.5" y="-1429.3" font-family="Times,serif" font-size="14.00">category_id :integer</text>
<text text-anchor="start" x="501.5" y="-1414.3" font-family="Times,serif" font-size="14.00">views_count :integer</text>
<text text-anchor="start" x="501.5" y="-1399.3" font-family="Times,serif" font-size="14.00">participants_count :integer</text>
<text text-anchor="start" x="501.5" y="-1384.3" font-family="Times,serif" font-size="14.00">questions_count :integer</text>
</g>
<!-- Category&#45;&gt;Quiz -->
<g id="edge4" class="edge"><title>Category&#45;&gt;Quiz</title>
<path fill="none" stroke="#82a246" d="M975.487,-804.443C900.648,-823.435 542.829,-785.815 508,-822 503.069,-827.123 503.606,-832.409 508,-838 528.915,-864.613 561.085,-829.387 582,-856 710.527,-1019.54 586.833,-1116.06 582,-1324 581.684,-1337.59 581.228,-1351.77 580.692,-1365.92"/>
<ellipse fill="none" stroke="#82a246" cx="979.708" cy="-802.989" rx="4.00001" ry="4.00001"/>
<polygon fill="#82a246" stroke="#82a246" points="580.681,-1366.21 575.791,-1376.02 580.484,-1371.2 580.288,-1376.2 580.288,-1376.2 580.288,-1376.2 580.484,-1371.2 584.784,-1376.38 580.681,-1366.21 580.681,-1366.21"/>
</g>
<!-- User -->
<g id="node9" class="node"><title>User</title>
<path fill="none" stroke="black" d="M1098,-857C1098,-857 1274,-857 1274,-857 1280,-857 1286,-863 1286,-869 1286,-869 1286,-1311 1286,-1311 1286,-1317 1280,-1323 1274,-1323 1274,-1323 1098,-1323 1098,-1323 1092,-1323 1086,-1317 1086,-1311 1086,-1311 1086,-869 1086,-869 1086,-863 1092,-857 1098,-857"/>
<text text-anchor="middle" x="1186" y="-1307.8" font-family="Times,serif" font-size="14.00">User</text>
<polyline fill="none" stroke="black" points="1086,-1300 1286,-1300 "/>
<text text-anchor="start" x="1094" y="-1284.8" font-family="Times,serif" font-size="14.00">id :integer</text>
<text text-anchor="start" x="1094" y="-1269.8" font-family="Times,serif" font-size="14.00">email :string</text>
<text text-anchor="start" x="1094" y="-1254.8" font-family="Times,serif" font-size="14.00">encrypted_password :string</text>
<text text-anchor="start" x="1094" y="-1239.8" font-family="Times,serif" font-size="14.00">reset_password_token :string</text>
<text text-anchor="start" x="1094" y="-1224.8" font-family="Times,serif" font-size="14.00">reset_password_sent_at :datetime</text>
<text text-anchor="start" x="1094" y="-1209.8" font-family="Times,serif" font-size="14.00">remember_created_at :datetime</text>
<text text-anchor="start" x="1094" y="-1194.8" font-family="Times,serif" font-size="14.00">sign_in_count :integer</text>
<text text-anchor="start" x="1094" y="-1179.8" font-family="Times,serif" font-size="14.00">current_sign_in_at :datetime</text>
<text text-anchor="start" x="1094" y="-1164.8" font-family="Times,serif" font-size="14.00">last_sign_in_at :datetime</text>
<text text-anchor="start" x="1094" y="-1149.8" font-family="Times,serif" font-size="14.00">current_sign_in_ip :string</text>
<text text-anchor="start" x="1094" y="-1134.8" font-family="Times,serif" font-size="14.00">last_sign_in_ip :string</text>
<text text-anchor="start" x="1094" y="-1119.8" font-family="Times,serif" font-size="14.00">confirmation_token :string</text>
<text text-anchor="start" x="1094" y="-1104.8" font-family="Times,serif" font-size="14.00">confirmed_at :datetime</text>
<text text-anchor="start" x="1094" y="-1089.8" font-family="Times,serif" font-size="14.00">confirmation_sent_at :datetime</text>
<text text-anchor="start" x="1094" y="-1074.8" font-family="Times,serif" font-size="14.00">unconfirmed_email :string</text>
<text text-anchor="start" x="1094" y="-1059.8" font-family="Times,serif" font-size="14.00">created_at :datetime</text>
<text text-anchor="start" x="1094" y="-1044.8" font-family="Times,serif" font-size="14.00">updated_at :datetime</text>
<text text-anchor="start" x="1094" y="-1029.8" font-family="Times,serif" font-size="14.00">username :string</text>
<text text-anchor="start" x="1094" y="-1014.8" font-family="Times,serif" font-size="14.00">fullname :string</text>
<text text-anchor="start" x="1094" y="-999.8" font-family="Times,serif" font-size="14.00">bio :text</text>
<text text-anchor="start" x="1094" y="-984.8" font-family="Times,serif" font-size="14.00">whois :string</text>
<text text-anchor="start" x="1094" y="-969.8" font-family="Times,serif" font-size="14.00">views_count :integer</text>
<text text-anchor="start" x="1094" y="-954.8" font-family="Times,serif" font-size="14.00">courses_count :integer</text>
<text text-anchor="start" x="1094" y="-939.8" font-family="Times,serif" font-size="14.00">articles_count :integer</text>
<text text-anchor="start" x="1094" y="-924.8" font-family="Times,serif" font-size="14.00">comments_count :integer</text>
<text text-anchor="start" x="1094" y="-909.8" font-family="Times,serif" font-size="14.00">questions_count :integer</text>
<text text-anchor="start" x="1094" y="-894.8" font-family="Times,serif" font-size="14.00">answers_count :integer</text>
<text text-anchor="start" x="1094" y="-879.8" font-family="Times,serif" font-size="14.00">subscribers_count :integer</text>
<text text-anchor="start" x="1094" y="-864.8" font-family="Times,serif" font-size="14.00">reviews_count :integer</text>
</g>
<!-- Category&#45;&gt;User -->
<g id="edge6" class="edge"><title>Category&#45;&gt;User</title>
<path fill="none" stroke="#7ccddb" d="M1148.4,-791.804C1154.88,-801.459 1160.6,-811.588 1165,-822 1168.42,-830.091 1171.45,-838.441 1174.13,-846.969"/>
<polygon fill="#7ccddb" stroke="#7ccddb" points="1148.28,-791.625 1146.21,-780.857 1145.4,-787.535 1142.52,-783.445 1142.52,-783.445 1142.52,-783.445 1145.4,-787.535 1138.84,-786.033 1148.28,-791.625 1148.28,-791.625"/>
<polygon fill="#7ccddb" stroke="#7ccddb" points="1174.16,-847.081 1172.69,-857.948 1175.58,-851.875 1177,-856.668 1177,-856.668 1177,-856.668 1175.58,-851.875 1181.32,-855.389 1174.16,-847.081 1174.16,-847.081"/>
<text text-anchor="middle" x="1200.5" y="-826.3" font-family="Times,serif" font-size="14.00">subscribers</text>
</g>
<!-- Course -->
<g id="node12" class="node"><title>Course</title>
<path fill="none" stroke="black" d="M742.5,-237C742.5,-237 877.5,-237 877.5,-237 883.5,-237 889.5,-243 889.5,-249 889.5,-249 889.5,-541 889.5,-541 889.5,-547 883.5,-553 877.5,-553 877.5,-553 742.5,-553 742.5,-553 736.5,-553 730.5,-547 730.5,-541 730.5,-541 730.5,-249 730.5,-249 730.5,-243 736.5,-237 742.5,-237"/>
<text text-anchor="middle" x="810" y="-537.8" font-family="Times,serif" font-size="14.00">Course</text>
<polyline fill="none" stroke="black" points="730.5,-530 889.5,-530 "/>
<text text-anchor="start" x="738.5" y="-514.8" font-family="Times,serif" font-size="14.00">id :integer</text>
<text text-anchor="start" x="738.5" y="-499.8" font-family="Times,serif" font-size="14.00">title :string</text>
<text text-anchor="start" x="738.5" y="-484.8" font-family="Times,serif" font-size="14.00">summary :string</text>
<text text-anchor="start" x="738.5" y="-469.8" font-family="Times,serif" font-size="14.00">body :text</text>
<text text-anchor="start" x="738.5" y="-454.8" font-family="Times,serif" font-size="14.00">content :text</text>
<text text-anchor="start" x="738.5" y="-439.8" font-family="Times,serif" font-size="14.00">level :string</text>
<text text-anchor="start" x="738.5" y="-424.8" font-family="Times,serif" font-size="14.00">youtube_id :string</text>
<text text-anchor="start" x="738.5" y="-409.8" font-family="Times,serif" font-size="14.00">category_id :integer</text>
<text text-anchor="start" x="738.5" y="-394.8" font-family="Times,serif" font-size="14.00">users_count :integer</text>
<text text-anchor="start" x="738.5" y="-379.8" font-family="Times,serif" font-size="14.00">articles_count :integer</text>
<text text-anchor="start" x="738.5" y="-364.8" font-family="Times,serif" font-size="14.00">reviews_count :integer</text>
<text text-anchor="start" x="738.5" y="-349.8" font-family="Times,serif" font-size="14.00">created_at :datetime</text>
<text text-anchor="start" x="738.5" y="-334.8" font-family="Times,serif" font-size="14.00">updated_at :datetime</text>
<text text-anchor="start" x="738.5" y="-319.8" font-family="Times,serif" font-size="14.00">user_id :integer</text>
<text text-anchor="start" x="738.5" y="-304.8" font-family="Times,serif" font-size="14.00">duration :integer</text>
<text text-anchor="start" x="738.5" y="-289.8" font-family="Times,serif" font-size="14.00">slug :string</text>
<text text-anchor="start" x="738.5" y="-274.8" font-family="Times,serif" font-size="14.00">rating :float</text>
<text text-anchor="start" x="738.5" y="-259.8" font-family="Times,serif" font-size="14.00">views_count :integer</text>
<text text-anchor="start" x="738.5" y="-244.8" font-family="Times,serif" font-size="14.00">subscribers_count :integer</text>
</g>
<!-- Category&#45;&gt;Course -->
<g id="edge3" class="edge"><title>Category&#45;&gt;Course</title>
<path fill="none" stroke="#36b885" d="M977.999,-600.52C951.652,-568.446 922.605,-533.084 896.179,-500.913"/>
<ellipse fill="none" stroke="#36b885" cx="980.758" cy="-603.879" rx="4.00002" ry="4.00002"/>
<polygon fill="#36b885" stroke="#36b885" points="895.868,-500.534 892.997,-489.951 892.694,-496.671 889.52,-492.807 889.52,-492.807 889.52,-492.807 892.694,-496.671 886.043,-495.664 895.868,-500.534 895.868,-500.534"/>
</g>
<!-- Subscription -->
<g id="node13" class="node"><title>Subscription</title>
<path fill="none" stroke="black" d="M1852,-38.5C1852,-38.5 1980,-38.5 1980,-38.5 1986,-38.5 1992,-44.5 1992,-50.5 1992,-50.5 1992,-147.5 1992,-147.5 1992,-153.5 1986,-159.5 1980,-159.5 1980,-159.5 1852,-159.5 1852,-159.5 1846,-159.5 1840,-153.5 1840,-147.5 1840,-147.5 1840,-50.5 1840,-50.5 1840,-44.5 1846,-38.5 1852,-38.5"/>
<text text-anchor="middle" x="1916" y="-144.3" font-family="Times,serif" font-size="14.00">Subscription</text>
<polyline fill="none" stroke="black" points="1840,-136.5 1992,-136.5 "/>
<text text-anchor="start" x="1848" y="-121.3" font-family="Times,serif" font-size="14.00">id :integer</text>
<text text-anchor="start" x="1848" y="-106.3" font-family="Times,serif" font-size="14.00">subscriber_id :integer</text>
<text text-anchor="start" x="1848" y="-91.3" font-family="Times,serif" font-size="14.00">subscribable_id :integer</text>
<text text-anchor="start" x="1848" y="-76.3" font-family="Times,serif" font-size="14.00">subscribable_type :string</text>
<text text-anchor="start" x="1848" y="-61.3" font-family="Times,serif" font-size="14.00">created_at :datetime</text>
<text text-anchor="start" x="1848" y="-46.3" font-family="Times,serif" font-size="14.00">updated_at :datetime</text>
</g>
<!-- Category&#45;&gt;Subscription -->
<g id="edge5" class="edge"><title>Category&#45;&gt;Subscription</title>
<path fill="none" stroke="#c57d9e" d="M1148.98,-630.974C1263.89,-534.973 1475.67,-363.575 1670,-236 1721.85,-201.964 1782.84,-168.204 1831.13,-142.834"/>
<ellipse fill="none" stroke="#c57d9e" cx="1145.64" cy="-633.771" rx="4.00002" ry="4.00002"/>
<polygon fill="#c57d9e" stroke="#c57d9e" points="1831.13,-142.833 1842.08,-142.183 1835.56,-140.514 1839.99,-138.196 1839.99,-138.196 1839.99,-138.196 1835.56,-140.514 1837.9,-134.209 1831.13,-142.833 1831.13,-142.833"/>
</g>
<!-- ArticleProgress -->
<g id="node4" class="node"><title>ArticleProgress</title>
<path fill="none" stroke="black" d="M300.5,-652C300.5,-652 407.5,-652 407.5,-652 413.5,-652 419.5,-658 419.5,-664 419.5,-664 419.5,-746 419.5,-746 419.5,-752 413.5,-758 407.5,-758 407.5,-758 300.5,-758 300.5,-758 294.5,-758 288.5,-752 288.5,-746 288.5,-746 288.5,-664 288.5,-664 288.5,-658 294.5,-652 300.5,-652"/>
<text text-anchor="middle" x="354" y="-742.8" font-family="Times,serif" font-size="14.00">ArticleProgress</text>
<polyline fill="none" stroke="black" points="288.5,-735 419.5,-735 "/>
<text text-anchor="start" x="296.5" y="-719.8" font-family="Times,serif" font-size="14.00">id :integer</text>
<text text-anchor="start" x="296.5" y="-704.8" font-family="Times,serif" font-size="14.00">student_id :integer</text>
<text text-anchor="start" x="296.5" y="-689.8" font-family="Times,serif" font-size="14.00">article_id :integer</text>
<text text-anchor="start" x="296.5" y="-674.8" font-family="Times,serif" font-size="14.00">created_at :datetime</text>
<text text-anchor="start" x="296.5" y="-659.8" font-family="Times,serif" font-size="14.00">updated_at :datetime</text>
</g>
<!-- Section -->
<g id="node5" class="node"><title>Section</title>
<path fill="none" stroke="black" d="M54.5,-31C54.5,-31 161.5,-31 161.5,-31 167.5,-31 173.5,-37 173.5,-43 173.5,-43 173.5,-155 173.5,-155 173.5,-161 167.5,-167 161.5,-167 161.5,-167 54.5,-167 54.5,-167 48.5,-167 42.5,-161 42.5,-155 42.5,-155 42.5,-43 42.5,-43 42.5,-37 48.5,-31 54.5,-31"/>
<text text-anchor="middle" x="108" y="-151.8" font-family="Times,serif" font-size="14.00">Section</text>
<polyline fill="none" stroke="black" points="42.5,-144 173.5,-144 "/>
<text text-anchor="start" x="50.5" y="-128.8" font-family="Times,serif" font-size="14.00">id :integer</text>
<text text-anchor="start" x="50.5" y="-113.8" font-family="Times,serif" font-size="14.00">name :string</text>
<text text-anchor="start" x="50.5" y="-98.8" font-family="Times,serif" font-size="14.00">course_id :integer</text>
<text text-anchor="start" x="50.5" y="-83.8" font-family="Times,serif" font-size="14.00">created_at :datetime</text>
<text text-anchor="start" x="50.5" y="-68.8" font-family="Times,serif" font-size="14.00">updated_at :datetime</text>
<text text-anchor="start" x="50.5" y="-53.8" font-family="Times,serif" font-size="14.00">duration :integer</text>
<text text-anchor="start" x="50.5" y="-38.8" font-family="Times,serif" font-size="14.00">position :integer</text>
</g>
<!-- Section&#45;&gt;Article -->
<g id="edge7" class="edge"><title>Section&#45;&gt;Article</title>
<path fill="none" stroke="#25cb55" d="M108,-175.348C108,-234.742 108,-319.658 108,-394 108,-1498 108,-1498 108,-1498 108,-1553.43 102.633,-1578.97 142,-1618 196.462,-1671.99 420.492,-1614.53 485,-1656 485.295,-1656.19 485.589,-1656.38 485.883,-1656.57"/>
<ellipse fill="none" stroke="#25cb55" cx="108" cy="-171.141" rx="4" ry="4"/>
<polygon fill="#25cb55" stroke="#25cb55" points="486.019,-1656.67 491.512,-1666.16 490.079,-1659.59 494.138,-1662.51 494.138,-1662.51 494.138,-1662.51 490.079,-1659.59 496.765,-1658.85 486.019,-1656.67 486.019,-1656.67"/>
</g>
<!-- Section&#45;&gt;Article -->
<g id="edge8" class="edge"><title>Section&#45;&gt;Article</title>
<path fill="none" stroke="#f461ee" d="M64.1267,-174.513C34.2134,-232.361 0,-315.65 0,-394 0,-1498 0,-1498 0,-1498 0,-1568.58 44.3482,-1580.28 104,-1618 132.071,-1635.75 143.237,-1632.56 176,-1638 209.927,-1643.63 455.993,-1637.52 485,-1656 485.296,-1656.19 485.591,-1656.38 485.885,-1656.57"/>
<ellipse fill="none" stroke="#f461ee" cx="66.083" cy="-170.776" rx="4.00002" ry="4.00002"/>
<polygon fill="#f461ee" stroke="#f461ee" points="486.02,-1656.67 491.549,-1666.14 490.091,-1659.57 494.162,-1662.47 494.162,-1662.47 494.162,-1662.47 490.091,-1659.57 496.774,-1658.81 486.02,-1656.67 486.02,-1656.67"/>
<text text-anchor="middle" x="46.5" y="-826.3" font-family="Times,serif" font-size="14.00">different_articles</text>
</g>
<!-- Enrollment -->
<g id="node6" class="node"><title>Enrollment</title>
<path fill="none" stroke="black" d="M1174.5,-38.5C1174.5,-38.5 1281.5,-38.5 1281.5,-38.5 1287.5,-38.5 1293.5,-44.5 1293.5,-50.5 1293.5,-50.5 1293.5,-147.5 1293.5,-147.5 1293.5,-153.5 1287.5,-159.5 1281.5,-159.5 1281.5,-159.5 1174.5,-159.5 1174.5,-159.5 1168.5,-159.5 1162.5,-153.5 1162.5,-147.5 1162.5,-147.5 1162.5,-50.5 1162.5,-50.5 1162.5,-44.5 1168.5,-38.5 1174.5,-38.5"/>
<text text-anchor="middle" x="1228" y="-144.3" font-family="Times,serif" font-size="14.00">Enrollment</text>
<polyline fill="none" stroke="black" points="1162.5,-136.5 1293.5,-136.5 "/>
<text text-anchor="start" x="1170.5" y="-121.3" font-family="Times,serif" font-size="14.00">id :integer</text>
<text text-anchor="start" x="1170.5" y="-106.3" font-family="Times,serif" font-size="14.00">user_id :integer</text>
<text text-anchor="start" x="1170.5" y="-91.3" font-family="Times,serif" font-size="14.00">course_id :integer</text>
<text text-anchor="start" x="1170.5" y="-76.3" font-family="Times,serif" font-size="14.00">created_at :datetime</text>
<text text-anchor="start" x="1170.5" y="-61.3" font-family="Times,serif" font-size="14.00">updated_at :datetime</text>
<text text-anchor="start" x="1170.5" y="-46.3" font-family="Times,serif" font-size="14.00">status :integer</text>
</g>
<!-- Article&#45;&gt;View -->
<g id="edge10" class="edge"><title>Article&#45;&gt;View</title>
<path fill="none" stroke="#1b6a3d" d="M488.04,-1658.04C487.037,-1657.34 486.024,-1656.66 485,-1656 427.689,-1618.84 227.535,-1667.05 180,-1618 141.421,-1578.19 146,-1553.43 146,-1498 146,-1498 146,-1498 146,-394 146,-296.521 223.962,-209.832 285.993,-156.286"/>
<ellipse fill="none" stroke="#1b6a3d" cx="491.29" cy="-1660.46" rx="4.00002" ry="4.00002"/>
<polygon fill="#1b6a3d" stroke="#1b6a3d" points="286.239,-156.076 296.772,-153.027 290.048,-152.838 293.857,-149.599 293.857,-149.599 293.857,-149.599 290.048,-152.838 290.942,-146.17 286.239,-156.076 286.239,-156.076"/>
</g>
<!-- Article&#45;&gt;ArticleProgress -->
<g id="edge11" class="edge"><title>Article&#45;&gt;ArticleProgress</title>
<path fill="none" stroke="#50607d" d="M488.036,-1658.04C487.035,-1657.35 486.023,-1656.67 485,-1656 441.846,-1627.91 289.444,-1675.35 254,-1638 214.617,-1596.5 211.108,-964.178 246,-856 256.579,-823.203 277.287,-791.526 297.765,-765.801"/>
<ellipse fill="none" stroke="#50607d" cx="491.284" cy="-1660.47" rx="4.00002" ry="4.00002"/>
<polygon fill="#50607d" stroke="#50607d" points="297.79,-765.77 307.592,-760.853 300.946,-761.892 304.102,-758.013 304.102,-758.013 304.102,-758.013 300.946,-761.892 300.611,-755.173 297.79,-765.77 297.79,-765.77"/>
</g>
<!-- Article&#45;&gt;Quiz -->
<g id="edge15" class="edge"><title>Article&#45;&gt;Quiz</title>
<path fill="none" stroke="#367553" d="M574,-1648.03C574,-1640.72 574,-1633.45 574,-1626.26"/>
<ellipse fill="none" stroke="#367553" cx="574" cy="-1652.19" rx="4" ry="4"/>
<ellipse fill="#367553" stroke="#367553" cx="574" cy="-1621.88" rx="4" ry="4"/>
</g>
<!-- Article&#45;&gt;User -->
<g id="edge12" class="edge"><title>Article&#45;&gt;User</title>
<path fill="none" stroke="#f3e758" d="M663.738,-1803.08C761.792,-1778.64 916.066,-1725.06 1000,-1618 1067.76,-1531.57 1014.98,-1480.1 1050,-1376 1059.11,-1348.92 1070.14,-1321.06 1081.94,-1293.85"/>
<polygon fill="#f3e758" stroke="#f3e758" points="663.555,-1803.12 652.773,-1801.12 658.697,-1804.31 653.84,-1805.49 653.84,-1805.49 653.84,-1805.49 658.697,-1804.31 654.907,-1809.86 663.555,-1803.12 663.555,-1803.12"/>
<polygon fill="#f3e758" stroke="#f3e758" points="1081.96,-1293.81 1090.1,-1286.46 1083.97,-1289.23 1085.97,-1284.65 1085.97,-1284.65 1085.97,-1284.65 1083.97,-1289.23 1081.85,-1282.85 1081.96,-1293.81 1081.96,-1293.81"/>
<text text-anchor="middle" x="1106.5" y="-1493.3" font-family="Times,serif" font-size="14.00">completing_students</text>
</g>
<!-- Article&#45;&gt;User -->
<g id="edge14" class="edge"><title>Article&#45;&gt;User</title>
<path fill="none" stroke="#1c7bb8" d="M663.925,-1819.45C797.532,-1811.75 1045.32,-1775.65 1163,-1618 1222.72,-1538 1235.75,-1430.56 1231.02,-1333.57"/>
<polygon fill="#1c7bb8" stroke="#1c7bb8" points="663.705,-1819.46 653.479,-1815.5 658.712,-1819.73 653.719,-1819.99 653.719,-1819.99 653.719,-1819.99 658.712,-1819.73 653.959,-1824.49 663.705,-1819.46 663.705,-1819.46"/>
<polygon fill="#1c7bb8" stroke="#1c7bb8" points="1231.01,-1333.29 1234.95,-1323.06 1230.73,-1328.3 1230.46,-1323.31 1230.46,-1323.31 1230.46,-1323.31 1230.73,-1328.3 1225.96,-1323.56 1231.01,-1333.29 1231.01,-1333.29"/>
<text text-anchor="middle" x="1261.5" y="-1493.3" font-family="Times,serif" font-size="14.00">subscribers</text>
</g>
<!-- Comment -->
<g id="node10" class="node"><title>Comment</title>
<path fill="none" stroke="black" d="M1741.5,-622C1741.5,-622 1876.5,-622 1876.5,-622 1882.5,-622 1888.5,-628 1888.5,-634 1888.5,-634 1888.5,-776 1888.5,-776 1888.5,-782 1882.5,-788 1876.5,-788 1876.5,-788 1741.5,-788 1741.5,-788 1735.5,-788 1729.5,-782 1729.5,-776 1729.5,-776 1729.5,-634 1729.5,-634 1729.5,-628 1735.5,-622 1741.5,-622"/>
<text text-anchor="middle" x="1809" y="-772.8" font-family="Times,serif" font-size="14.00">Comment</text>
<polyline fill="none" stroke="black" points="1729.5,-765 1888.5,-765 "/>
<text text-anchor="start" x="1737.5" y="-749.8" font-family="Times,serif" font-size="14.00">id :integer</text>
<text text-anchor="start" x="1737.5" y="-734.8" font-family="Times,serif" font-size="14.00">commentable_id :integer</text>
<text text-anchor="start" x="1737.5" y="-719.8" font-family="Times,serif" font-size="14.00">commentable_type :string</text>
<text text-anchor="start" x="1737.5" y="-704.8" font-family="Times,serif" font-size="14.00">user_id :integer</text>
<text text-anchor="start" x="1737.5" y="-689.8" font-family="Times,serif" font-size="14.00">parent_id :integer</text>
<text text-anchor="start" x="1737.5" y="-674.8" font-family="Times,serif" font-size="14.00">body :text</text>
<text text-anchor="start" x="1737.5" y="-659.8" font-family="Times,serif" font-size="14.00">created_at :datetime</text>
<text text-anchor="start" x="1737.5" y="-644.8" font-family="Times,serif" font-size="14.00">updated_at :datetime</text>
<text text-anchor="start" x="1737.5" y="-629.8" font-family="Times,serif" font-size="14.00">subparent_id :integer</text>
</g>
<!-- Article&#45;&gt;Comment -->
<g id="edge9" class="edge"><title>Article&#45;&gt;Comment</title>
<path fill="none" stroke="#8ec561" d="M661.97,-1812.39C804.734,-1795.07 1091.47,-1746.01 1296,-1618 1689.08,-1371.97 1824.25,-1271.47 1989,-838 2008.29,-787.234 1952.52,-752.492 1898.09,-731.444"/>
<ellipse fill="none" stroke="#8ec561" cx="657.584" cy="-1812.92" rx="4.00001" ry="4.00001"/>
<polygon fill="#8ec561" stroke="#8ec561" points="1898.04,-731.425 1890.24,-723.712 1893.35,-729.676 1888.67,-727.928 1888.67,-727.928 1888.67,-727.928 1893.35,-729.676 1887.09,-732.143 1898.04,-731.425 1898.04,-731.425"/>
</g>
<!-- Article&#45;&gt;Subscription -->
<g id="edge13" class="edge"><title>Article&#45;&gt;Subscription</title>
<path fill="none" stroke="#043c27" d="M662.029,-1821.27C986.793,-1819.95 2099,-1793.83 2099,-1498 2099,-1498 2099,-1498 2099,-394 2099,-306.002 2039.18,-222.523 1987.94,-167.161"/>
<ellipse fill="none" stroke="#043c27" cx="657.577" cy="-1821.29" rx="4" ry="4"/>
<polygon fill="#043c27" stroke="#043c27" points="1987.63,-166.825 1984.06,-156.456 1984.2,-163.182 1980.78,-159.539 1980.78,-159.539 1980.78,-159.539 1984.2,-163.182 1977.5,-162.621 1987.63,-166.825 1987.63,-166.825"/>
</g>
<!-- Quiz&#45;&gt;View -->
<g id="edge19" class="edge"><title>Quiz&#45;&gt;View</title>
<path fill="none" stroke="#096926" d="M488.497,-1399.52C471.438,-1376.11 455.315,-1350.23 444,-1324 360.455,-1130.31 483.601,-1030.44 365,-856 339.887,-819.062 300.941,-842.906 279,-804 162.275,-597.019 268.317,-301.699 327.457,-169.102"/>
<ellipse fill="none" stroke="#096926" cx="490.952" cy="-1402.84" rx="4.00002" ry="4.00002"/>
<polygon fill="#096926" stroke="#096926" points="327.523,-168.957 335.733,-161.688 329.577,-164.398 331.631,-159.839 331.631,-159.839 331.631,-159.839 329.577,-164.398 327.528,-157.991 327.523,-168.957 327.523,-168.957"/>
</g>
<!-- Quiz&#45;&gt;User -->
<g id="edge18" class="edge"><title>Quiz&#45;&gt;User</title>
<path fill="none" stroke="#9b6fba" d="M615.386,-1367.75C621.134,-1358.47 627.642,-1349.74 635,-1342 755.865,-1214.9 953.251,-1146.85 1076.06,-1114.87"/>
<polygon fill="#9b6fba" stroke="#9b6fba" points="615.369,-1367.78 606.435,-1374.14 612.844,-1372.09 610.318,-1376.41 610.318,-1376.41 610.318,-1376.41 612.844,-1372.09 614.202,-1378.68 615.369,-1367.78 615.369,-1367.78"/>
<polygon fill="#9b6fba" stroke="#9b6fba" points="1076.19,-1114.84 1086.99,-1116.71 1081.03,-1113.6 1085.87,-1112.35 1085.87,-1112.35 1085.87,-1112.35 1081.03,-1113.6 1084.75,-1108 1076.19,-1114.84 1076.19,-1114.84"/>
<text text-anchor="middle" x="667" y="-1346.3" font-family="Times,serif" font-size="14.00">participants</text>
</g>
<!-- Attempt -->
<g id="node16" class="node"><title>Attempt</title>
<ellipse fill="none" stroke="black" cx="533" cy="-1090" rx="39.9464" ry="18"/>
<text text-anchor="middle" x="533" y="-1086.3" font-family="Times,serif" font-size="14.00">Attempt</text>
</g>
<!-- Quiz&#45;&gt;Attempt -->
<g id="edge16" class="edge"><title>Quiz&#45;&gt;Attempt</title>
<path fill="none" stroke="#9fa286" d="M561.086,-1368.43C552.103,-1279.7 540.858,-1168.62 535.751,-1118.17"/>
<ellipse fill="none" stroke="#9fa286" cx="561.49" cy="-1372.42" rx="4" ry="4"/>
<polygon fill="#9fa286" stroke="#9fa286" points="535.736,-1118.03 539.206,-1107.63 535.233,-1113.05 534.729,-1108.08 534.729,-1108.08 534.729,-1108.08 535.233,-1113.05 530.252,-1108.53 535.736,-1118.03 535.736,-1118.03"/>
</g>
<!-- Question -->
<g id="node17" class="node"><title>Question</title>
<ellipse fill="none" stroke="black" cx="480" cy="-705" rx="42.3701" ry="18"/>
<text text-anchor="middle" x="480" y="-701.3" font-family="Times,serif" font-size="14.00">Question</text>
</g>
<!-- Quiz&#45;&gt;Question -->
<g id="edge17" class="edge"><title>Quiz&#45;&gt;Question</title>
<path fill="none" stroke="#ccb584" d="M500.163,-1368.77C493.807,-1354.02 488.207,-1338.92 484,-1324 425.224,-1115.63 458.338,-1054.37 451,-838 450.759,-830.893 450.131,-829.058 451,-822 454.827,-790.912 464.218,-756.172 471.284,-732.885"/>
<ellipse fill="none" stroke="#ccb584" cx="501.937" cy="-1372.79" rx="4.00002" ry="4.00002"/>
<polygon fill="#ccb584" stroke="#ccb584" points="471.373,-732.596 478.636,-724.38 472.856,-727.821 474.338,-723.046 474.338,-723.046 474.338,-723.046 472.856,-727.821 470.041,-721.712 471.373,-732.596 471.373,-732.596"/>
</g>
<!-- User&#45;&gt;View -->
<g id="edge24" class="edge"><title>User&#45;&gt;View</title>
<path fill="none" stroke="#1f7a51" d="M1078.2,-1039.38C972.675,-990.19 807.85,-911.731 668,-838 655.321,-831.316 653.281,-827.388 640,-822 610.233,-809.923 592.056,-827.355 570,-804 508.419,-738.791 553.997,-692.692 531,-606 488.86,-447.145 423.521,-265.552 387.349,-168.96"/>
<ellipse fill="none" stroke="#1f7a51" cx="1082.07" cy="-1041.18" rx="4.00002" ry="4.00002"/>
<polygon fill="#1f7a51" stroke="#1f7a51" points="387.349,-168.96 388.047,-158.016 385.592,-164.278 383.834,-159.597 383.834,-159.597 383.834,-159.597 385.592,-164.278 379.621,-161.179 387.349,-168.96 387.349,-168.96"/>
</g>
<!-- User&#45;&gt;Category -->
<g id="edge33" class="edge"><title>User&#45;&gt;Category</title>
<path fill="none" stroke="#30cbe5" d="M1080.95,-935.867C1064.45,-904.735 1049.93,-871.292 1041,-838 1038.86,-830.023 1037.74,-821.716 1037.4,-813.325"/>
<polygon fill="#30cbe5" stroke="#30cbe5" points="1081.14,-936.216 1081.93,-947.154 1083.51,-940.616 1085.89,-945.016 1085.89,-945.016 1085.89,-945.016 1083.51,-940.616 1089.85,-942.879 1081.14,-936.216 1081.14,-936.216"/>
<polygon fill="#30cbe5" stroke="#30cbe5" points="1037.4,-813.065 1041.85,-803.043 1037.37,-808.065 1037.35,-803.065 1037.35,-803.065 1037.35,-803.065 1037.37,-808.065 1032.85,-803.087 1037.4,-813.065 1037.4,-813.065"/>
<text text-anchor="middle" x="1101" y="-826.3" font-family="Times,serif" font-size="14.00">subscribed_categories</text>
</g>
<!-- User&#45;&gt;ArticleProgress -->
<g id="edge29" class="edge"><title>User&#45;&gt;ArticleProgress</title>
<path fill="none" stroke="#73ace5" d="M1078.48,-1042.65C958.842,-992.225 759.026,-911.419 582,-856 549.698,-845.888 540.103,-848.728 508,-838 471.746,-825.885 459.15,-827.496 429,-804 415.439,-793.431 403.009,-779.859 392.335,-766.204"/>
<ellipse fill="none" stroke="#73ace5" cx="1082.21" cy="-1044.22" rx="4.00002" ry="4.00002"/>
<polygon fill="#73ace5" stroke="#73ace5" points="392.294,-766.149 389.846,-755.46 389.276,-762.163 386.258,-758.176 386.258,-758.176 386.258,-758.176 389.276,-762.163 382.67,-760.893 392.294,-766.149 392.294,-766.149"/>
</g>
<!-- User&#45;&gt;Enrollment -->
<g id="edge25" class="edge"><title>User&#45;&gt;Enrollment</title>
<path fill="none" stroke="#b78c5f" d="M1288.55,-877.489C1292.64,-864.31 1296.19,-851.084 1299,-838 1350.95,-596.067 1284.84,-301.32 1248.69,-169.509"/>
<ellipse fill="none" stroke="#b78c5f" cx="1287.3" cy="-881.43" rx="4.00001" ry="4.00001"/>
<polygon fill="#b78c5f" stroke="#b78c5f" points="1248.59,-169.18 1250.26,-158.341 1247.26,-164.361 1245.92,-159.543 1245.92,-159.543 1245.92,-159.543 1247.26,-164.361 1241.59,-160.745 1248.59,-169.18 1248.59,-169.18"/>
</g>
<!-- User&#45;&gt;Article -->
<g id="edge20" class="edge"><title>User&#45;&gt;Article</title>
<path fill="none" stroke="#f41dca" d="M1078.06,-1128.41C980.621,-1167.4 839.91,-1237.56 755,-1342 673.435,-1442.33 709.452,-1497.33 663,-1618 659.333,-1627.53 655.471,-1637.26 651.493,-1647.05"/>
<ellipse fill="none" stroke="#f41dca" cx="1081.86" cy="-1126.9" rx="4.00001" ry="4.00001"/>
<polygon fill="#f41dca" stroke="#f41dca" points="651.433,-1647.19 643.481,-1654.74 649.54,-1651.82 647.646,-1656.45 647.646,-1656.45 647.646,-1656.45 649.54,-1651.82 651.811,-1658.15 651.433,-1647.19 651.433,-1647.19"/>
</g>
<!-- User&#45;&gt;Article -->
<g id="edge30" class="edge"><title>User&#45;&gt;Article</title>
<path fill="none" stroke="#0bc5fd" d="M1076.9,-1143.92C987.294,-1192.62 863.287,-1272.87 788,-1376 721.371,-1467.27 759.258,-1516.3 710,-1618 695.672,-1647.58 677.558,-1677.85 659.263,-1705.69"/>
<polygon fill="#0bc5fd" stroke="#0bc5fd" points="1076.93,-1143.91 1087.87,-1143.13 1081.33,-1141.54 1085.74,-1139.17 1085.74,-1139.17 1085.74,-1139.17 1081.33,-1141.54 1083.6,-1135.2 1076.93,-1143.91 1076.93,-1143.91"/>
<polygon fill="#0bc5fd" stroke="#0bc5fd" points="659.114,-1705.91 649.834,-1711.76 656.349,-1710.08 653.584,-1714.24 653.584,-1714.24 653.584,-1714.24 656.349,-1710.08 657.333,-1716.73 659.114,-1705.91 659.114,-1705.91"/>
<text text-anchor="middle" x="829" y="-1493.3" font-family="Times,serif" font-size="14.00">passed_articles</text>
</g>
<!-- User&#45;&gt;Article -->
<g id="edge35" class="edge"><title>User&#45;&gt;Article</title>
<path fill="none" stroke="#2edd50" d="M1077.74,-1164.6C1012.04,-1215.67 933.162,-1289.87 892,-1376 845.433,-1473.44 924.612,-1524.83 870,-1618 823.409,-1697.49 731.892,-1752.88 662.889,-1785.49"/>
<polygon fill="#2edd50" stroke="#2edd50" points="1077.76,-1164.58 1088.43,-1162.05 1081.72,-1161.53 1085.68,-1158.48 1085.68,-1158.48 1085.68,-1158.48 1081.72,-1161.53 1082.94,-1154.92 1077.76,-1164.58 1077.76,-1164.58"/>
<polygon fill="#2edd50" stroke="#2edd50" points="662.805,-1785.52 651.84,-1785.66 658.271,-1787.63 653.737,-1789.74 653.737,-1789.74 653.737,-1789.74 658.271,-1787.63 655.634,-1793.82 662.805,-1785.52 662.805,-1785.52"/>
<text text-anchor="middle" x="944" y="-1493.3" font-family="Times,serif" font-size="14.00">subscribed_articles</text>
</g>
<!-- User&#45;&gt;User -->
<g id="edge32" class="edge"><title>User&#45;&gt;User</title>
<path fill="none" stroke="#b4fda9" d="M1295.55,-1105.57C1300.87,-1101.67 1304,-1096.48 1304,-1090 1304,-1083.52 1300.87,-1078.33 1295.55,-1074.43"/>
<polygon fill="#b4fda9" stroke="#b4fda9" points="1295.17,-1105.76 1284.22,-1106.35 1290.73,-1108.06 1286.29,-1110.35 1286.29,-1110.35 1286.29,-1110.35 1290.73,-1108.06 1288.35,-1114.35 1295.17,-1105.76 1295.17,-1105.76"/>
<polygon fill="#b4fda9" stroke="#b4fda9" points="1295.17,-1074.24 1288.35,-1065.65 1290.73,-1071.94 1286.29,-1069.65 1286.29,-1069.65 1286.29,-1069.65 1290.73,-1071.94 1284.22,-1073.65 1295.17,-1074.24 1295.17,-1074.24"/>
<text text-anchor="middle" x="1350.5" y="-1086.3" font-family="Times,serif" font-size="14.00">subscribed_users</text>
</g>
<!-- User&#45;&gt;User -->
<g id="edge38" class="edge"><title>User&#45;&gt;User</title>
<path fill="none" stroke="#f818ba" d="M1296.21,-1138.39C1348.13,-1141.43 1397,-1125.3 1397,-1090 1397,-1054.7 1348.13,-1038.57 1296.21,-1041.61"/>
<polygon fill="#f818ba" stroke="#f818ba" points="1296.12,-1138.38 1286.52,-1133.07 1291.13,-1137.97 1286.15,-1137.56 1286.15,-1137.56 1286.15,-1137.56 1291.13,-1137.97 1285.78,-1142.04 1296.12,-1138.38 1296.12,-1138.38"/>
<polygon fill="#f818ba" stroke="#f818ba" points="1296.12,-1041.62 1285.78,-1037.96 1291.13,-1042.03 1286.15,-1042.44 1286.15,-1042.44 1286.15,-1042.44 1291.13,-1042.03 1286.52,-1046.93 1296.12,-1041.62 1296.12,-1041.62"/>
<text text-anchor="middle" x="1427.5" y="-1086.3" font-family="Times,serif" font-size="14.00">subscribers</text>
</g>
<!-- User&#45;&gt;Comment -->
<g id="edge21" class="edge"><title>User&#45;&gt;Comment</title>
<path fill="none" stroke="#9c9ef8" d="M1294.09,-1070.51C1489.98,-1034.57 1890.96,-948.957 1972,-838 2002.05,-796.86 1950.57,-761.262 1897.7,-737.436"/>
<ellipse fill="none" stroke="#9c9ef8" cx="1290" cy="-1071.26" rx="4.00001" ry="4.00001"/>
<polygon fill="#9c9ef8" stroke="#9c9ef8" points="1897.69,-737.43 1890.33,-729.298 1893.11,-735.425 1888.53,-733.42 1888.53,-733.42 1888.53,-733.42 1893.11,-735.425 1886.72,-737.543 1897.69,-737.43 1897.69,-737.43"/>
</g>
<!-- User&#45;&gt;Comment -->
<g id="edge28" class="edge"><title>User&#45;&gt;Comment</title>
<path fill="none" stroke="#33c2c6" d="M1295.88,-1047.76C1402.21,-1004.8 1564.92,-930.843 1688,-838 1704.42,-825.612 1720.44,-810.809 1735.16,-795.666"/>
<polygon fill="#33c2c6" stroke="#33c2c6" points="1295.69,-1047.83 1284.74,-1047.38 1291.05,-1049.7 1286.41,-1051.56 1286.41,-1051.56 1286.41,-1051.56 1291.05,-1049.7 1288.09,-1055.74 1295.69,-1047.83 1295.69,-1047.83"/>
<polygon fill="#33c2c6" stroke="#33c2c6" points="1735.38,-795.445 1745.54,-791.324 1738.83,-791.83 1742.29,-788.215 1742.29,-788.215 1742.29,-788.215 1738.83,-791.83 1739.03,-785.106 1735.38,-795.445 1735.38,-795.445"/>
<text text-anchor="middle" x="1778.5" y="-826.3" font-family="Times,serif" font-size="14.00">comments_with_mentions</text>
</g>
<!-- Activity -->
<g id="node11" class="node"><title>Activity</title>
<path fill="none" stroke="black" d="M1336,-1C1336,-1 1446,-1 1446,-1 1452,-1 1458,-7 1458,-13 1458,-13 1458,-185 1458,-185 1458,-191 1452,-197 1446,-197 1446,-197 1336,-197 1336,-197 1330,-197 1324,-191 1324,-185 1324,-185 1324,-13 1324,-13 1324,-7 1330,-1 1336,-1"/>
<text text-anchor="middle" x="1391" y="-181.8" font-family="Times,serif" font-size="14.00">Activity</text>
<polyline fill="none" stroke="black" points="1324,-174 1458,-174 "/>
<text text-anchor="start" x="1332" y="-158.8" font-family="Times,serif" font-size="14.00">id :integer</text>
<text text-anchor="start" x="1332" y="-143.8" font-family="Times,serif" font-size="14.00">trackable_id :integer</text>
<text text-anchor="start" x="1332" y="-128.8" font-family="Times,serif" font-size="14.00">trackable_type :string</text>
<text text-anchor="start" x="1332" y="-113.8" font-family="Times,serif" font-size="14.00">owner_id :integer</text>
<text text-anchor="start" x="1332" y="-98.8" font-family="Times,serif" font-size="14.00">recipient_id :integer</text>
<text text-anchor="start" x="1332" y="-83.8" font-family="Times,serif" font-size="14.00">category_id :integer</text>
<text text-anchor="start" x="1332" y="-68.8" font-family="Times,serif" font-size="14.00">key :string</text>
<text text-anchor="start" x="1332" y="-53.8" font-family="Times,serif" font-size="14.00">created_at :datetime</text>
<text text-anchor="start" x="1332" y="-38.8" font-family="Times,serif" font-size="14.00">updated_at :datetime</text>
<text text-anchor="start" x="1332" y="-23.8" font-family="Times,serif" font-size="14.00">parent_type :string</text>
<text text-anchor="start" x="1332" y="-8.8" font-family="Times,serif" font-size="14.00">parent_id :integer</text>
</g>
<!-- User&#45;&gt;Activity -->
<g id="edge39" class="edge"><title>User&#45;&gt;Activity</title>
<path fill="none" stroke="#5cd98a" d="M1293.74,-1058.78C1406.41,-1020.5 1576.11,-942.26 1644,-804 1749.45,-589.256 1572.15,-319.051 1464.42,-184.384"/>
<ellipse fill="none" stroke="#5cd98a" cx="1289.86" cy="-1060.08" rx="4.00001" ry="4.00001"/>
<polygon fill="#5cd98a" stroke="#5cd98a" points="1464.34,-184.286 1461.57,-173.676 1461.2,-180.392 1458.06,-176.499 1458.06,-176.499 1458.06,-176.499 1461.2,-180.392 1454.56,-179.322 1464.34,-184.286 1464.34,-184.286"/>
</g>
<!-- User&#45;&gt;Course -->
<g id="edge23" class="edge"><title>User&#45;&gt;Course</title>
<path fill="none" stroke="#dac590" d="M1265.22,-848.995C1279.93,-766.735 1278.78,-677.486 1234,-606 1160.49,-488.656 1000.69,-435.233 899.568,-412.148"/>
<ellipse fill="none" stroke="#dac590" cx="1264.47" cy="-853" rx="4.00001" ry="4.00001"/>
<polygon fill="#dac590" stroke="#dac590" points="899.428,-412.116 890.646,-405.549 894.548,-411.029 889.667,-409.941 889.667,-409.941 889.667,-409.941 894.548,-411.029 888.688,-414.333 899.428,-412.116 899.428,-412.116"/>
</g>
<!-- User&#45;&gt;Course -->
<g id="edge26" class="edge"><title>User&#45;&gt;Course</title>
<path fill="none" stroke="#f00784" d="M1076.85,-1026.62C977.307,-970.598 825.527,-887.359 690,-822 671.707,-813.178 659.18,-820.955 648,-804 599.557,-730.534 619.606,-689.293 648,-606 663.539,-560.416 693.421,-517.027 723.333,-481.648"/>
<polygon fill="#f00784" stroke="#f00784" points="1077.01,-1026.7 1083.51,-1035.53 1081.36,-1029.16 1085.72,-1031.61 1085.72,-1031.61 1085.72,-1031.61 1081.36,-1029.16 1087.93,-1027.69 1077.01,-1026.7 1077.01,-1026.7"/>
<polygon fill="#f00784" stroke="#f00784" points="723.595,-481.343 733.527,-476.694 726.855,-477.552 730.115,-473.76 730.115,-473.76 730.115,-473.76 726.855,-477.552 726.702,-470.827 723.595,-481.343 723.595,-481.343"/>
<text text-anchor="middle" x="694" y="-701.3" font-family="Times,serif" font-size="14.00">enrolled_courses</text>
</g>
<!-- User&#45;&gt;Course -->
<g id="edge34" class="edge"><title>User&#45;&gt;Course</title>
<path fill="none" stroke="#4df5ca" d="M1077.31,-1020.98C1005.99,-970.255 917.291,-894.306 869,-804 846.898,-762.668 831.968,-656.829 822.656,-563.31"/>
<polygon fill="#4df5ca" stroke="#4df5ca" points="1077.74,-1021.29 1083.33,-1030.72 1081.83,-1024.16 1085.92,-1027.04 1085.92,-1027.04 1085.92,-1027.04 1081.83,-1024.16 1088.51,-1023.36 1077.74,-1021.29 1077.74,-1021.29"/>
<polygon fill="#4df5ca" stroke="#4df5ca" points="822.635,-563.092 826.14,-552.701 822.148,-558.116 821.661,-553.14 821.661,-553.14 821.661,-553.14 822.148,-558.116 817.182,-553.578 822.635,-563.092 822.635,-563.092"/>
<text text-anchor="middle" x="922" y="-701.3" font-family="Times,serif" font-size="14.00">subscribed_courses</text>
</g>
<!-- User&#45;&gt;Subscription -->
<g id="edge31" class="edge"><title>User&#45;&gt;Subscription</title>
<path fill="none" stroke="#b11410" d="M1294.08,-1071.84C1498.44,-1037.05 1929.33,-951.77 2022,-838 2104.83,-736.321 1990.12,-333.231 1938.7,-169.589"/>
<ellipse fill="none" stroke="#b11410" cx="1289.96" cy="-1072.54" rx="4.00001" ry="4.00001"/>
<polygon fill="#b11410" stroke="#b11410" points="1938.56,-169.166 1939.84,-158.275 1937.06,-164.398 1935.55,-159.63 1935.55,-159.63 1935.55,-159.63 1937.06,-164.398 1931.26,-160.985 1938.56,-169.166 1938.56,-169.166"/>
</g>
<!-- User&#45;&gt;Subscription -->
<g id="edge37" class="edge"><title>User&#45;&gt;Subscription</title>
<path fill="none" stroke="#5b933e" d="M1294.24,-1070.69C1492.72,-1034.73 1902.51,-948.68 1989,-838 2007.64,-814.148 2076.58,-714.892 1991,-606 1970.08,-579.387 1937.94,-614.591 1917,-588 1821.91,-467.264 1861.08,-272.609 1891.98,-169.412"/>
<ellipse fill="none" stroke="#5b933e" cx="1290.05" cy="-1071.44" rx="4.00001" ry="4.00001"/>
<polygon fill="#5b933e" stroke="#5b933e" points="1892.02,-169.281 1899.24,-161.03 1893.48,-164.499 1894.94,-159.717 1894.94,-159.717 1894.94,-159.717 1893.48,-164.499 1890.64,-158.403 1892.02,-169.281 1892.02,-169.281"/>
<text text-anchor="middle" x="1976" y="-576.3" font-family="Times,serif" font-size="14.00">reverse_subscriptions</text>
</g>
<!-- Review -->
<g id="node14" class="node"><title>Review</title>
<path fill="none" stroke="black" d="M559.5,-16C559.5,-16 666.5,-16 666.5,-16 672.5,-16 678.5,-22 678.5,-28 678.5,-28 678.5,-170 678.5,-170 678.5,-176 672.5,-182 666.5,-182 666.5,-182 559.5,-182 559.5,-182 553.5,-182 547.5,-176 547.5,-170 547.5,-170 547.5,-28 547.5,-28 547.5,-22 553.5,-16 559.5,-16"/>
<text text-anchor="middle" x="613" y="-166.8" font-family="Times,serif" font-size="14.00">Review</text>
<polyline fill="none" stroke="black" points="547.5,-159 678.5,-159 "/>
<text text-anchor="start" x="555.5" y="-143.8" font-family="Times,serif" font-size="14.00">id :integer</text>
<text text-anchor="start" x="555.5" y="-128.8" font-family="Times,serif" font-size="14.00">course_id :integer</text>
<text text-anchor="start" x="555.5" y="-113.8" font-family="Times,serif" font-size="14.00">user_id :integer</text>
<text text-anchor="start" x="555.5" y="-98.8" font-family="Times,serif" font-size="14.00">body :text</text>
<text text-anchor="start" x="555.5" y="-83.8" font-family="Times,serif" font-size="14.00">rating :integer</text>
<text text-anchor="start" x="555.5" y="-68.8" font-family="Times,serif" font-size="14.00">progress :integer</text>
<text text-anchor="start" x="555.5" y="-53.8" font-family="Times,serif" font-size="14.00">created_at :datetime</text>
<text text-anchor="start" x="555.5" y="-38.8" font-family="Times,serif" font-size="14.00">updated_at :datetime</text>
<text text-anchor="start" x="555.5" y="-23.8" font-family="Times,serif" font-size="14.00">status :integer</text>
</g>
<!-- User&#45;&gt;Review -->
<g id="edge22" class="edge"><title>User&#45;&gt;Review</title>
<path fill="none" stroke="#8a6ea9" d="M1078.21,-1035.99C977.811,-986.179 824.304,-908.887 693,-838 680.388,-831.191 678.033,-827.965 665,-822 643.143,-811.997 627.897,-823.612 614,-804 546.18,-708.287 579.503,-360.3 600.422,-192.171"/>
<ellipse fill="none" stroke="#8a6ea9" cx="1082.06" cy="-1037.9" rx="4.00002" ry="4.00002"/>
<polygon fill="#8a6ea9" stroke="#8a6ea9" points="600.441,-192.018 606.152,-182.657 601.064,-187.057 601.687,-182.096 601.687,-182.096 601.687,-182.096 601.064,-187.057 597.222,-181.535 600.441,-192.018 600.441,-192.018"/>
</g>
<!-- Mention -->
<g id="node15" class="node"><title>Mention</title>
<path fill="none" stroke="black" d="M1691,-334.5C1691,-334.5 1819,-334.5 1819,-334.5 1825,-334.5 1831,-340.5 1831,-346.5 1831,-346.5 1831,-443.5 1831,-443.5 1831,-449.5 1825,-455.5 1819,-455.5 1819,-455.5 1691,-455.5 1691,-455.5 1685,-455.5 1679,-449.5 1679,-443.5 1679,-443.5 1679,-346.5 1679,-346.5 1679,-340.5 1685,-334.5 1691,-334.5"/>
<text text-anchor="middle" x="1755" y="-440.3" font-family="Times,serif" font-size="14.00">Mention</text>
<polyline fill="none" stroke="black" points="1679,-432.5 1831,-432.5 "/>
<text text-anchor="start" x="1687" y="-417.3" font-family="Times,serif" font-size="14.00">id :integer</text>
<text text-anchor="start" x="1687" y="-402.3" font-family="Times,serif" font-size="14.00">mentionable_id :integer</text>
<text text-anchor="start" x="1687" y="-387.3" font-family="Times,serif" font-size="14.00">mentionable_type :string</text>
<text text-anchor="start" x="1687" y="-372.3" font-family="Times,serif" font-size="14.00">user_id :integer</text>
<text text-anchor="start" x="1687" y="-357.3" font-family="Times,serif" font-size="14.00">created_at :datetime</text>
<text text-anchor="start" x="1687" y="-342.3" font-family="Times,serif" font-size="14.00">updated_at :datetime</text>
</g>
<!-- User&#45;&gt;Mention -->
<g id="edge27" class="edge"><title>User&#45;&gt;Mention</title>
<path fill="none" stroke="#15dc28" d="M1294,-1055.7C1400.23,-1018.06 1560.89,-947.395 1663,-838 1674.27,-825.926 1673.1,-819.774 1678,-804 1697.27,-741.936 1727.59,-564.899 1743.84,-465.636"/>
<ellipse fill="none" stroke="#15dc28" cx="1290.22" cy="-1057.02" rx="4.00001" ry="4.00001"/>
<polygon fill="#15dc28" stroke="#15dc28" points="1743.85,-465.561 1749.9,-456.416 1744.66,-460.626 1745.46,-455.691 1745.46,-455.691 1745.46,-455.691 1744.66,-460.626 1741.02,-454.966 1743.85,-465.561 1743.85,-465.561"/>
</g>
<!-- User&#45;&gt;Question -->
<g id="edge36" class="edge"><title>User&#45;&gt;Question</title>
<path fill="none" stroke="#c5eaf8" d="M1076.17,-1044.07C955.749,-995.411 756.424,-916.632 582,-856 556.506,-847.138 543.283,-856.885 524,-838 495.411,-810 485.397,-762.965 481.89,-733.254"/>
<polygon fill="#c5eaf8" stroke="#c5eaf8" points="1076.5,-1044.21 1084.09,-1052.13 1081.14,-1046.08 1085.77,-1047.95 1085.77,-1047.95 1085.77,-1047.95 1081.14,-1046.08 1087.46,-1043.78 1076.5,-1044.21 1076.5,-1044.21"/>
<polygon fill="#c5eaf8" stroke="#c5eaf8" points="481.876,-733.108 485.347,-722.707 481.373,-728.134 480.87,-723.159 480.87,-723.159 480.87,-723.159 481.373,-728.134 476.393,-723.612 481.876,-733.108 481.876,-733.108"/>
<text text-anchor="middle" x="582" y="-826.3" font-family="Times,serif" font-size="14.00">subscribed_questions</text>
</g>
<!-- Survey::Attempt -->
<g id="node18" class="node"><title>Survey::Attempt</title>
<ellipse fill="none" stroke="black" cx="1417" cy="-705" rx="69.3156" ry="18"/>
<text text-anchor="middle" x="1417" y="-701.3" font-family="Times,serif" font-size="14.00">Survey::Attempt</text>
</g>
<!-- User&#45;&gt;Survey::Attempt -->
<g id="edge40" class="edge"><title>User&#45;&gt;Survey::Attempt</title>
<path fill="none" stroke="#288087" d="M1292.85,-1019.43C1350.54,-975.205 1416.27,-912.333 1448,-838 1463.04,-802.752 1446.42,-758.95 1432.32,-731.73"/>
<ellipse fill="none" stroke="#288087" cx="1289.4" cy="-1022.05" rx="4.00002" ry="4.00002"/>
<polygon fill="#288087" stroke="#288087" points="1432.26,-731.624 1431.44,-720.689 1429.87,-727.23 1427.49,-722.835 1427.49,-722.835 1427.49,-722.835 1429.87,-727.23 1423.53,-724.981 1432.26,-731.624 1432.26,-731.624"/>
<text text-anchor="middle" x="1475.5" y="-826.3" font-family="Times,serif" font-size="14.00">attempts</text>
</g>
<!-- User&#45;&gt;Survey::Attempt -->
<g id="edge42" class="edge"><title>User&#45;&gt;Survey::Attempt</title>
<path fill="none" stroke="#486725" d="M1290.36,-915.968C1333.37,-844.651 1378.47,-769.886 1401.48,-731.733"/>
<ellipse fill="none" stroke="#486725" cx="1288.21" cy="-919.535" rx="4.00002" ry="4.00002"/>
<polygon fill="#486725" stroke="#486725" points="1401.68,-731.409 1410.69,-725.17 1404.26,-727.127 1406.84,-722.846 1406.84,-722.846 1406.84,-722.846 1404.26,-727.127 1402.99,-720.522 1401.68,-731.409 1401.68,-731.409"/>
<text text-anchor="middle" x="1389.5" y="-826.3" font-family="Times,serif" font-size="14.00">survey_tentatives</text>
</g>
<!-- Survey::Survey -->
<g id="node19" class="node"><title>Survey::Survey</title>
<ellipse fill="none" stroke="black" cx="1570" cy="-705" rx="65.4659" ry="18"/>
<text text-anchor="middle" x="1570" y="-701.3" font-family="Times,serif" font-size="14.00">Survey::Survey</text>
</g>
<!-- User&#45;&gt;Survey::Survey -->
<g id="edge41" class="edge"><title>User&#45;&gt;Survey::Survey</title>
<path fill="none" stroke="#757c38" d="M1294.56,-1020.72C1360.88,-975.028 1443.98,-910.181 1503,-838 1529.51,-805.572 1549.42,-760.931 1560.39,-732.773"/>
<polygon fill="#757c38" stroke="#757c38" points="1294.4,-1020.83 1283.61,-1022.76 1290.27,-1023.65 1286.15,-1026.48 1286.15,-1026.48 1286.15,-1026.48 1290.27,-1023.65 1288.69,-1030.19 1294.4,-1020.83 1294.4,-1020.83"/>
<polygon fill="#757c38" stroke="#757c38" points="1560.48,-732.547 1568.23,-724.793 1562.25,-727.872 1564.02,-723.197 1564.02,-723.197 1564.02,-723.197 1562.25,-727.872 1559.82,-721.601 1560.48,-732.547 1560.48,-732.547"/>
<text text-anchor="middle" x="1554" y="-826.3" font-family="Times,serif" font-size="14.00">passed_quizzes</text>
</g>
<!-- Comment&#45;&gt;User -->
<g id="edge45" class="edge"><title>Comment&#45;&gt;User</title>
<path fill="none" stroke="#d073d1" d="M1863.15,-798.355C1865.19,-812.262 1863.34,-825.961 1855,-838 1728.31,-1020.84 1450.88,-1070.69 1296.03,-1084.15"/>
<polygon fill="#d073d1" stroke="#d073d1" points="1863.08,-797.998 1865.42,-787.285 1862.05,-793.105 1861.01,-788.213 1861.01,-788.213 1861.01,-788.213 1862.05,-793.105 1856.61,-789.141 1863.08,-797.998 1863.08,-797.998"/>
<polygon fill="#d073d1" stroke="#d073d1" points="1295.97,-1084.15 1285.63,-1080.5 1290.99,-1084.56 1286.01,-1084.98 1286.01,-1084.98 1286.01,-1084.98 1290.99,-1084.56 1286.38,-1089.46 1295.97,-1084.15 1295.97,-1084.15"/>
<text text-anchor="middle" x="1907.5" y="-826.3" font-family="Times,serif" font-size="14.00">mentioned_users</text>
</g>
<!-- Comment&#45;&gt;Comment -->
<g id="edge43" class="edge"><title>Comment&#45;&gt;Comment</title>
<path fill="none" stroke="#1d424a" d="M1896.09,-722.01C1902.25,-718.14 1906,-712.47 1906,-705 1906,-698.166 1902.86,-692.838 1897.61,-689.017"/>
<ellipse fill="none" stroke="#1d424a" cx="1892.17" cy="-723.824" rx="4.00002" ry="4.00002"/>
<polygon fill="#1d424a" stroke="#1d424a" points="1897.49,-688.957 1890.55,-680.47 1893.01,-686.727 1888.54,-684.497 1888.54,-684.497 1888.54,-684.497 1893.01,-686.727 1886.53,-688.525 1897.49,-688.957 1897.49,-688.957"/>
<text text-anchor="middle" x="1944" y="-701.3" font-family="Times,serif" font-size="14.00">subcomments</text>
</g>
<!-- Comment&#45;&gt;Mention -->
<g id="edge44" class="edge"><title>Comment&#45;&gt;Mention</title>
<path fill="none" stroke="#96d424" d="M1793.19,-613.806C1784.92,-566.631 1774.94,-509.75 1767.26,-465.948"/>
<ellipse fill="none" stroke="#96d424" cx="1793.91" cy="-617.926" rx="4.00001" ry="4.00001"/>
<polygon fill="#96d424" stroke="#96d424" points="1767.24,-465.811 1769.95,-455.184 1766.38,-460.886 1765.51,-455.961 1765.51,-455.961 1765.51,-455.961 1766.38,-460.886 1761.08,-456.739 1767.24,-465.811 1767.24,-465.811"/>
</g>
<!-- Course&#45;&gt;View -->
<g id="edge52" class="edge"><title>Course&#45;&gt;View</title>
<path fill="none" stroke="#b51523" d="M723.347,-337.26C640.246,-282.847 516.033,-201.514 436.775,-149.617"/>
<ellipse fill="none" stroke="#b51523" cx="726.899" cy="-339.586" rx="4.00002" ry="4.00002"/>
<polygon fill="#b51523" stroke="#b51523" points="436.661,-149.542 430.76,-140.299 432.478,-146.803 428.295,-144.064 428.295,-144.064 428.295,-144.064 432.478,-146.803 425.83,-147.829 436.661,-149.542 436.661,-149.542"/>
</g>
<!-- Course&#45;&gt;Section -->
<g id="edge46" class="edge"><title>Course&#45;&gt;Section</title>
<path fill="none" stroke="#1bdc76" d="M722.464,-365.768C616.921,-330.72 435.016,-267.07 285,-198 250.589,-182.156 213.756,-162.268 182.65,-144.555"/>
<ellipse fill="none" stroke="#1bdc76" cx="726.446" cy="-367.088" rx="4.00001" ry="4.00001"/>
<polygon fill="#1bdc76" stroke="#1bdc76" points="182.291,-144.35 175.85,-135.475 177.952,-141.865 173.613,-139.38 173.613,-139.38 173.613,-139.38 177.952,-141.865 171.377,-143.284 182.291,-144.35 182.291,-144.35"/>
</g>
<!-- Course&#45;&gt;Enrollment -->
<g id="edge50" class="edge"><title>Course&#45;&gt;Enrollment</title>
<path fill="none" stroke="#b0a2e1" d="M896.186,-333.381C972.156,-279.947 1081.68,-202.915 1153.82,-152.176"/>
<ellipse fill="none" stroke="#b0a2e1" cx="892.878" cy="-335.708" rx="4.00002" ry="4.00002"/>
<polygon fill="#b0a2e1" stroke="#b0a2e1" points="1154.25,-151.875 1165.01,-149.803 1158.34,-148.998 1162.43,-146.122 1162.43,-146.122 1162.43,-146.122 1158.34,-148.998 1159.84,-142.441 1154.25,-151.875 1154.25,-151.875"/>
</g>
<!-- Course&#45;&gt;Article -->
<g id="edge47" class="edge"><title>Course&#45;&gt;Article</title>
<path fill="none" stroke="#ad13cc" d="M719.853,-404.454C595.311,-420.995 371.782,-469.009 246,-606 176.426,-681.774 184,-726.13 184,-829 184,-1498 184,-1498 184,-1498 184,-1566.79 185.15,-1615.05 250,-1638 299.375,-1655.47 441.084,-1627.46 485,-1656 485.409,-1656.27 485.817,-1656.53 486.223,-1656.81"/>
<polygon fill="#ad13cc" stroke="#ad13cc" points="720.2,-404.409 730.693,-407.595 725.159,-403.771 730.118,-403.132 730.118,-403.132 730.118,-403.132 725.159,-403.771 729.543,-398.669 720.2,-404.409 720.2,-404.409"/>
<polygon fill="#ad13cc" stroke="#ad13cc" points="486.422,-1656.95 491.837,-1666.49 490.458,-1659.9 494.493,-1662.85 494.493,-1662.85 494.493,-1662.85 490.458,-1659.9 497.15,-1659.22 486.422,-1656.95 486.422,-1656.95"/>
</g>
<!-- Course&#45;&gt;Article -->
<g id="edge48" class="edge"><title>Course&#45;&gt;Article</title>
<path fill="none" stroke="#11adb3" d="M720.283,-401.91C596.761,-415.429 378.347,-459.876 279,-606 229.523,-678.774 272.951,-716.208 279,-804 295.038,-1036.76 291.102,-1098.5 351,-1324 387.147,-1460.08 410.368,-1489.99 469,-1618 475.568,-1632.34 482.628,-1647.12 489.868,-1661.86"/>
<polygon fill="#11adb3" stroke="#11adb3" points="720.525,-401.885 730.94,-405.317 725.498,-401.363 730.471,-400.841 730.471,-400.841 730.471,-400.841 725.498,-401.363 730.002,-396.366 720.525,-401.885 720.525,-401.885"/>
<polygon fill="#11adb3" stroke="#11adb3" points="489.968,-1662.06 490.363,-1673.02 492.183,-1666.54 494.397,-1671.03 494.397,-1671.03 494.397,-1671.03 492.183,-1666.54 498.432,-1669.03 489.968,-1662.06 489.968,-1662.06"/>
<text text-anchor="middle" x="397.5" y="-1086.3" font-family="Times,serif" font-size="14.00">different_articles</text>
</g>
<!-- Course&#45;&gt;User -->
<g id="edge51" class="edge"><title>Course&#45;&gt;User</title>
<path fill="none" stroke="#932d78" d="M899.646,-409.402C1005.14,-430.866 1175.41,-483.737 1252,-606 1296.42,-676.91 1297.91,-765.296 1282.53,-847.004"/>
<polygon fill="#932d78" stroke="#932d78" points="899.454,-409.364 890.519,-403.007 894.549,-408.392 889.645,-407.421 889.645,-407.421 889.645,-407.421 894.549,-408.392 888.77,-411.835 899.454,-409.364 899.454,-409.364"/>
<polygon fill="#932d78" stroke="#932d78" points="1282.5,-847.122 1276.15,-856.063 1281.53,-852.028 1280.57,-856.933 1280.57,-856.933 1280.57,-856.933 1281.53,-852.028 1284.98,-857.804 1282.5,-847.122 1282.5,-847.122"/>
</g>
<!-- Course&#45;&gt;User -->
<g id="edge54" class="edge"><title>Course&#45;&gt;User</title>
<path fill="none" stroke="#69c26c" d="M768.281,-563.022C765.746,-577.489 763.584,-591.959 762,-606 752.133,-693.445 720.624,-726.334 762,-804 827.918,-927.733 974.079,-1007.32 1076.26,-1050.11"/>
<polygon fill="#69c26c" stroke="#69c26c" points="768.312,-562.852 774.521,-553.814 769.202,-557.932 770.093,-553.012 770.093,-553.012 770.093,-553.012 769.202,-557.932 765.665,-552.21 768.312,-562.852 768.312,-562.852"/>
<polygon fill="#69c26c" stroke="#69c26c" points="1076.46,-1050.19 1083.98,-1058.17 1081.08,-1052.1 1085.7,-1054.01 1085.7,-1054.01 1085.7,-1054.01 1081.08,-1052.1 1087.42,-1049.85 1076.46,-1050.19 1076.46,-1050.19"/>
<text text-anchor="middle" x="792.5" y="-701.3" font-family="Times,serif" font-size="14.00">subscribers</text>
</g>
<!-- Course&#45;&gt;Activity -->
<g id="edge55" class="edge"><title>Course&#45;&gt;Activity</title>
<path fill="none" stroke="#def544" d="M897.491,-361.602C1029.34,-312.409 1267.32,-222.047 1302,-198 1306.84,-194.644 1311.6,-190.978 1316.25,-187.098"/>
<ellipse fill="none" stroke="#def544" cx="893.488" cy="-363.094" rx="4.00001" ry="4.00001"/>
<polygon fill="#def544" stroke="#def544" points="1316.43,-186.945 1326.93,-183.777 1320.2,-183.664 1323.97,-180.382 1323.97,-180.382 1323.97,-180.382 1320.2,-183.664 1321.02,-176.987 1316.43,-186.945 1316.43,-186.945"/>
</g>
<!-- Course&#45;&gt;Subscription -->
<g id="edge53" class="edge"><title>Course&#45;&gt;Subscription</title>
<path fill="none" stroke="#1dd456" d="M897.269,-357.171C984.261,-321.706 1122.36,-268.756 1246,-236 1342.34,-210.477 1369.18,-217.075 1467,-198 1593.81,-173.272 1739.84,-140.616 1830.04,-119.956"/>
<ellipse fill="none" stroke="#1dd456" cx="893.497" cy="-358.712" rx="4.00002" ry="4.00002"/>
<polygon fill="#1dd456" stroke="#1dd456" points="1830.2,-119.92 1840.95,-122.07 1835.07,-118.802 1839.95,-117.684 1839.95,-117.684 1839.95,-117.684 1835.07,-118.802 1838.94,-113.298 1830.2,-119.92 1830.2,-119.92"/>
</g>
<!-- Course&#45;&gt;Review -->
<g id="edge49" class="edge"><title>Course&#45;&gt;Review</title>
<path fill="none" stroke="#89896b" d="M725.762,-268.285C708.301,-242.227 690.23,-215.257 673.805,-190.745"/>
<ellipse fill="none" stroke="#89896b" cx="728.214" cy="-271.943" rx="4.00002" ry="4.00002"/>
<polygon fill="#89896b" stroke="#89896b" points="673.634,-190.49 671.806,-179.677 670.851,-186.336 668.068,-182.182 668.068,-182.182 668.068,-182.182 670.851,-186.336 664.329,-184.687 673.634,-190.49 673.634,-190.49"/>
</g>
</g>
</svg>
