<?xml version="1.0" encoding="UTF-8" standalone="no"?>
<!DOCTYPE svg PUBLIC "-//W3C//DTD SVG 1.1//EN"
 "http://www.w3.org/Graphics/SVG/1.1/DTD/svg11.dtd">
<!-- Generated by graphviz version 2.36.0 (20140111.2315)
 -->
<!-- Title: models_diagram Pages: 1 -->
<svg width="2007pt" height="498pt"
 viewBox="0.00 0.00 2007.00 498.00" xmlns="http://www.w3.org/2000/svg" xmlns:xlink="http://www.w3.org/1999/xlink">
<g id="graph0" class="graph" transform="scale(1 1) rotate(0) translate(4 494)">
<title>models_diagram</title>
<polygon fill="white" stroke="none" points="-4,4 -4,-494 2003,-494 2003,4 -4,4"/>
<!-- _diagram_info -->
<g id="node1" class="node"><title>_diagram_info</title>
<text text-anchor="start" x="274" y="-475.6" font-family="Times,serif" font-size="13.00">Models diagram</text>
<text text-anchor="start" x="274" y="-461.6" font-family="Times,serif" font-size="13.00">Date: Jun 15 2015 &#45; 17:39</text>
<text text-anchor="start" x="274" y="-447.6" font-family="Times,serif" font-size="13.00">Migration version: 20150611222411</text>
<text text-anchor="start" x="274" y="-433.6" font-family="Times,serif" font-size="13.00">Generated by RailRoady 1.3.0</text>
<text text-anchor="start" x="274" y="-419.6" font-family="Times,serif" font-size="13.00">http://railroady.prestonlee.com</text>
</g>
<!-- View -->
<g id="node2" class="node"><title>View</title>
<ellipse fill="none" stroke="black" cx="313" cy="-18" rx="29.3479" ry="18"/>
<text text-anchor="middle" x="313" y="-14.3" font-family="Times,serif" font-size="14.00">View</text>
</g>
<!-- Category -->
<g id="node3" class="node"><title>Category</title>
<ellipse fill="none" stroke="black" cx="1026" cy="-180" rx="42.3456" ry="18"/>
<text text-anchor="middle" x="1026" y="-176.3" font-family="Times,serif" font-size="14.00">Category</text>
</g>
<!-- Category&#45;&gt;Category -->
<g id="edge1" class="edge"><title>Category&#45;&gt;Category</title>
<path fill="none" stroke="#430391" d="M1071.98,-187.773C1080.23,-186.769 1086,-184.178 1086,-180 1086,-176.163 1081.13,-173.664 1073.95,-172.504"/>
<ellipse fill="none" stroke="#430391" cx="1067.79" cy="-188.017" rx="4" ry="4"/>
<polygon fill="#430391" stroke="#430391" points="1073.77,-172.491 1064.13,-167.263 1068.78,-172.121 1063.79,-171.751 1063.79,-171.751 1063.79,-171.751 1068.78,-172.121 1063.46,-176.238 1073.77,-172.491 1073.77,-172.491"/>
<text text-anchor="middle" x="1123" y="-176.3" font-family="Times,serif" font-size="14.00">subcategories</text>
</g>
<!-- Article -->
<g id="node7" class="node"><title>Article</title>
<ellipse fill="none" stroke="black" cx="533" cy="-451" rx="35.1455" ry="18"/>
<text text-anchor="middle" x="533" y="-447.3" font-family="Times,serif" font-size="14.00">Article</text>
</g>
<!-- Category&#45;&gt;Article -->
<g id="edge2" class="edge"><title>Category&#45;&gt;Article</title>
<path fill="none" stroke="#af61ce" d="M988.692,-195.432C985.117,-196.444 981.514,-197.328 978,-198 925.36,-208.061 539.165,-184.235 496,-216 431.134,-263.735 487.146,-375.35 517.07,-425.194"/>
<ellipse fill="none" stroke="#af61ce" cx="992.608" cy="-194.222" rx="4.00001" ry="4.00001"/>
<polygon fill="#af61ce" stroke="#af61ce" points="517.09,-425.228 518.482,-436.106 519.704,-429.491 522.318,-433.753 522.318,-433.753 522.318,-433.753 519.704,-429.491 526.154,-431.401 517.09,-425.228 517.09,-425.228"/>
</g>
<!-- Quiz -->
<g id="node8" class="node"><title>Quiz</title>
<ellipse fill="none" stroke="black" cx="533" cy="-356" rx="27.4223" ry="18"/>
<text text-anchor="middle" x="533" y="-352.3" font-family="Times,serif" font-size="14.00">Quiz</text>
</g>
<!-- Category&#45;&gt;Quiz -->
<g id="edge4" class="edge"><title>Category&#45;&gt;Quiz</title>
<path fill="none" stroke="#e436e2" d="M988.691,-195.429C985.116,-196.442 981.514,-197.327 978,-198 952.118,-202.955 522.277,-197.016 504,-216 499.068,-221.123 499.573,-226.435 504,-232 526.149,-259.842 559.851,-222.158 582,-250 602.389,-275.63 577.027,-311.127 555.86,-333.575"/>
<ellipse fill="none" stroke="#e436e2" cx="992.608" cy="-194.22" rx="4.00001" ry="4.00001"/>
<polygon fill="#e436e2" stroke="#e436e2" points="555.638,-333.801 545.42,-337.78 552.134,-337.367 548.629,-340.934 548.629,-340.934 548.629,-340.934 552.134,-337.367 551.839,-344.088 555.638,-333.801 555.638,-333.801"/>
</g>
<!-- User -->
<g id="node9" class="node"><title>User</title>
<ellipse fill="none" stroke="black" cx="1140" cy="-268" rx="26.949" ry="18"/>
<text text-anchor="middle" x="1140" y="-264.3" font-family="Times,serif" font-size="14.00">User</text>
</g>
<!-- Category&#45;&gt;User -->
<g id="edge6" class="edge"><title>Category&#45;&gt;User</title>
<path fill="none" stroke="#586455" d="M1062.95,-198.327C1072.45,-203.464 1082.42,-209.478 1091,-216 1101.69,-224.124 1112.19,-234.616 1120.71,-243.969"/>
<polygon fill="#586455" stroke="#586455" points="1062.9,-198.303 1056.11,-189.692 1058.47,-195.993 1054.03,-193.683 1054.03,-193.683 1054.03,-193.683 1058.47,-195.993 1051.95,-197.674 1062.9,-198.303 1062.9,-198.303"/>
<polygon fill="#586455" stroke="#586455" points="1120.74,-243.994 1124,-254.464 1124.05,-247.737 1127.37,-251.481 1127.37,-251.481 1127.37,-251.481 1124.05,-247.737 1130.74,-248.497 1120.74,-243.994 1120.74,-243.994"/>
<text text-anchor="middle" x="1138.5" y="-220.3" font-family="Times,serif" font-size="14.00">subscribers</text>
</g>
<!-- Course -->
<g id="node12" class="node"><title>Course</title>
<ellipse fill="none" stroke="black" cx="811" cy="-92" rx="35.6194" ry="18"/>
<text text-anchor="middle" x="811" y="-88.3" font-family="Times,serif" font-size="14.00">Course</text>
</g>
<!-- Category&#45;&gt;Course -->
<g id="edge3" class="edge"><title>Category&#45;&gt;Course</title>
<path fill="none" stroke="#4317f4" d="M988.655,-164.062C948.99,-148.196 886.701,-123.281 847.4,-107.56"/>
<ellipse fill="none" stroke="#4317f4" cx="992.391" cy="-165.556" rx="4.00001" ry="4.00001"/>
<polygon fill="#4317f4" stroke="#4317f4" points="847.216,-107.486 839.602,-99.5941 842.573,-105.629 837.931,-103.772 837.931,-103.772 837.931,-103.772 842.573,-105.629 836.259,-107.95 847.216,-107.486 847.216,-107.486"/>
</g>
<!-- Subscription -->
<g id="node13" class="node"><title>Subscription</title>
<ellipse fill="none" stroke="black" cx="1810" cy="-18" rx="55.3682" ry="18"/>
<text text-anchor="middle" x="1810" y="-14.3" font-family="Times,serif" font-size="14.00">Subscription</text>
</g>
<!-- Category&#45;&gt;Subscription -->
<g id="edge5" class="edge"><title>Category&#45;&gt;Subscription</title>
<path fill="none" stroke="#bd6768" d="M1071.22,-169.772C1206.31,-142.203 1606.65,-60.4994 1754.4,-30.346"/>
<ellipse fill="none" stroke="#bd6768" cx="1067.21" cy="-170.591" rx="4.00001" ry="4.00001"/>
<polygon fill="#bd6768" stroke="#bd6768" points="1754.8,-30.2652 1765.5,-32.6747 1759.7,-29.2654 1764.6,-28.2655 1764.6,-28.2655 1764.6,-28.2655 1759.7,-29.2654 1763.7,-23.8564 1754.8,-30.2652 1754.8,-30.2652"/>
</g>
<!-- ArticleProgress -->
<g id="node4" class="node"><title>ArticleProgress</title>
<ellipse fill="none" stroke="black" cx="354" cy="-180" rx="65.4659" ry="18"/>
<text text-anchor="middle" x="354" y="-176.3" font-family="Times,serif" font-size="14.00">ArticleProgress</text>
</g>
<!-- Section -->
<g id="node5" class="node"><title>Section</title>
<ellipse fill="none" stroke="black" cx="108" cy="-18" rx="37.0701" ry="18"/>
<text text-anchor="middle" x="108" y="-14.3" font-family="Times,serif" font-size="14.00">Section</text>
</g>
<!-- Section&#45;&gt;Article -->
<g id="edge7" class="edge"><title>Section&#45;&gt;Article</title>
<path fill="none" stroke="#bcc203" d="M108,-44.251C108,-58.0617 108,-75.4727 108,-91 108,-357 108,-357 108,-357 108,-442.324 408.766,-380.343 488,-412 496.599,-415.436 504.746,-421.196 511.684,-427.207"/>
<ellipse fill="none" stroke="#bcc203" cx="108" cy="-40.1662" rx="4" ry="4"/>
<polygon fill="#bcc203" stroke="#bcc203" points="511.92,-427.427 516.157,-437.541 515.574,-430.84 519.229,-434.253 519.229,-434.253 519.229,-434.253 515.574,-430.84 522.3,-430.964 511.92,-427.427 511.92,-427.427"/>
</g>
<!-- Section&#45;&gt;Article -->
<g id="edge8" class="edge"><title>Section&#45;&gt;Article</title>
<path fill="none" stroke="#657a9d" d="M66.9918,-28.6806C36.4443,-38.6146 0,-57.4884 0,-91 0,-357 0,-357 0,-357 0,-419.641 74.1424,-384.121 136,-394 213.344,-406.352 415.152,-383.226 488,-412 496.613,-415.402 504.764,-421.152 511.701,-427.164"/>
<ellipse fill="none" stroke="#657a9d" cx="71.1846" cy="-27.3978" rx="4.00001" ry="4.00001"/>
<polygon fill="#657a9d" stroke="#657a9d" points="511.939,-427.386 516.17,-437.503 515.591,-430.801 519.243,-434.216 519.243,-434.216 519.243,-434.216 515.591,-430.801 522.317,-430.929 511.939,-427.386 511.939,-427.386"/>
<text text-anchor="middle" x="46.5" y="-220.3" font-family="Times,serif" font-size="14.00">different_articles</text>
</g>
<!-- Enrollment -->
<g id="node6" class="node"><title>Enrollment</title>
<ellipse fill="none" stroke="black" cx="986" cy="-18" rx="50.5427" ry="18"/>
<text text-anchor="middle" x="986" y="-14.3" font-family="Times,serif" font-size="14.00">Enrollment</text>
</g>
<!-- Article&#45;&gt;View -->
<g id="edge10" class="edge"><title>Article&#45;&gt;View</title>
<path fill="none" stroke="#fd61ea" d="M513.004,-428.439C505.783,-422.015 497.142,-415.706 488,-412 416.664,-383.077 146,-433.977 146,-357 146,-357 146,-357 146,-91 146,-35.732 224.083,-22.3824 273.465,-19.4661"/>
<ellipse fill="none" stroke="#fd61ea" cx="516.302" cy="-431.553" rx="4.00002" ry="4.00002"/>
<polygon fill="#fd61ea" stroke="#fd61ea" points="273.539,-19.4626 283.741,-23.4858 278.534,-19.2267 283.528,-18.9908 283.528,-18.9908 283.528,-18.9908 278.534,-19.2267 283.316,-14.4958 273.539,-19.4626 273.539,-19.4626"/>
</g>
<!-- Article&#45;&gt;ArticleProgress -->
<g id="edge11" class="edge"><title>Article&#45;&gt;ArticleProgress</title>
<path fill="none" stroke="#64d646" d="M512.988,-428.48C505.766,-422.059 497.127,-415.741 488,-412 439.743,-392.219 290.826,-430.93 254,-394 208.74,-348.611 215.206,-306.217 246,-250 258.871,-226.503 283.527,-209.845 306.035,-198.79"/>
<ellipse fill="none" stroke="#64d646" cx="516.285" cy="-431.591" rx="4.00002" ry="4.00002"/>
<polygon fill="#64d646" stroke="#64d646" points="306.112,-198.755 317.077,-198.617 310.645,-196.646 315.179,-194.537 315.179,-194.537 315.179,-194.537 310.645,-196.646 313.281,-190.457 306.112,-198.755 306.112,-198.755"/>
</g>
<!-- Article&#45;&gt;Quiz -->
<g id="edge15" class="edge"><title>Article&#45;&gt;Quiz</title>
<path fill="none" stroke="#0a22da" d="M533,-424.562C533,-411.454 533,-395.513 533,-382.408"/>
<ellipse fill="none" stroke="#0a22da" cx="533" cy="-428.942" rx="4" ry="4"/>
<ellipse fill="#0a22da" stroke="#0a22da" cx="533" cy="-378.264" rx="4" ry="4"/>
</g>
<!-- Article&#45;&gt;User -->
<g id="edge12" class="edge"><title>Article&#45;&gt;User</title>
<path fill="none" stroke="#b40547" d="M578.567,-450.232C662.848,-448.995 847.058,-438.409 985,-374 1008.52,-363.016 1009.78,-352.961 1031,-338 1057.7,-319.169 1089.37,-299.39 1111.68,-285.861"/>
<polygon fill="#b40547" stroke="#b40547" points="578.312,-450.235 568.264,-445.843 573.312,-450.289 568.313,-450.343 568.313,-450.343 568.313,-450.343 573.312,-450.289 568.361,-454.843 578.312,-450.235 578.312,-450.235"/>
<polygon fill="#b40547" stroke="#b40547" points="1111.76,-285.81 1122.65,-284.497 1116.04,-283.227 1120.32,-280.644 1120.32,-280.644 1120.32,-280.644 1116.04,-283.227 1118,-276.791 1111.76,-285.81 1111.76,-285.81"/>
<text text-anchor="middle" x="1087.5" y="-352.3" font-family="Times,serif" font-size="14.00">completing_students</text>
</g>
<!-- Article&#45;&gt;User -->
<g id="edge14" class="edge"><title>Article&#45;&gt;User</title>
<path fill="none" stroke="#124f32" d="M578.068,-447.776C712.962,-440.662 1106.54,-416.414 1144,-374 1162.73,-352.801 1157.3,-318.762 1150.11,-295.214"/>
<polygon fill="#124f32" stroke="#124f32" points="577.677,-447.796 567.456,-443.822 572.683,-448.056 567.69,-448.316 567.69,-448.316 567.69,-448.316 572.683,-448.056 567.924,-452.81 577.677,-447.796 577.677,-447.796"/>
<polygon fill="#124f32" stroke="#124f32" points="1150.04,-295.01 1151.14,-284.1 1148.46,-290.268 1146.87,-285.525 1146.87,-285.525 1146.87,-285.525 1148.46,-290.268 1142.61,-286.95 1150.04,-295.01 1150.04,-295.01"/>
<text text-anchor="middle" x="1186.5" y="-352.3" font-family="Times,serif" font-size="14.00">subscribers</text>
</g>
<!-- Comment -->
<g id="node10" class="node"><title>Comment</title>
<ellipse fill="none" stroke="black" cx="1737" cy="-180" rx="46.2191" ry="18"/>
<text text-anchor="middle" x="1737" y="-176.3" font-family="Times,serif" font-size="14.00">Comment</text>
</g>
<!-- Article&#45;&gt;Comment -->
<g id="edge9" class="edge"><title>Article&#45;&gt;Comment</title>
<path fill="none" stroke="#adc628" d="M575.545,-447.198C671.776,-440.577 913.401,-422.358 1114,-394 1396.88,-354.01 1834.83,-298.895 1889,-232 1917.63,-196.64 1847.73,-185.643 1793.45,-182.313"/>
<ellipse fill="none" stroke="#adc628" cx="571.497" cy="-447.475" rx="4" ry="4"/>
<polygon fill="#adc628" stroke="#adc628" points="1793.16,-182.298 1783.42,-177.267 1788.17,-182.029 1783.18,-181.76 1783.18,-181.76 1783.18,-181.76 1788.17,-182.029 1782.93,-186.254 1793.16,-182.298 1793.16,-182.298"/>
</g>
<!-- Article&#45;&gt;Subscription -->
<g id="edge13" class="edge"><title>Article&#45;&gt;Subscription</title>
<path fill="none" stroke="#7534e8" d="M576.391,-449.574C819.239,-446.911 1999,-430.209 1999,-357 1999,-357 1999,-357 1999,-91 1999,-62.4897 1922.95,-41.1778 1867.33,-29.4041"/>
<ellipse fill="none" stroke="#7534e8" cx="572.151" cy="-449.62" rx="4" ry="4"/>
<polygon fill="#7534e8" stroke="#7534e8" points="1867,-29.3361 1858.11,-22.9097 1862.1,-28.3266 1857.21,-27.3171 1857.21,-27.3171 1857.21,-27.3171 1862.1,-28.3266 1856.3,-31.7244 1867,-29.3361 1867,-29.3361"/>
</g>
<!-- Quiz&#45;&gt;View -->
<g id="edge19" class="edge"><title>Quiz&#45;&gt;View</title>
<path fill="none" stroke="#0d7a85" d="M506.88,-338.509C473.905,-317.728 415.395,-280.982 365,-250 326.949,-226.607 300.941,-236.906 279,-198 251.044,-148.427 279.178,-80.1175 298.369,-43.8954"/>
<ellipse fill="none" stroke="#0d7a85" cx="510.525" cy="-340.807" rx="4.00002" ry="4.00002"/>
<polygon fill="#0d7a85" stroke="#0d7a85" points="298.445,-43.7577 307.199,-37.1536 300.849,-39.3737 303.254,-34.9897 303.254,-34.9897 303.254,-34.9897 300.849,-39.3737 299.308,-32.8258 298.445,-43.7577 298.445,-43.7577"/>
</g>
<!-- Quiz&#45;&gt;User -->
<g id="edge18" class="edge"><title>Quiz&#45;&gt;User</title>
<path fill="none" stroke="#f5ec93" d="M565.606,-342.208C580.121,-336.096 597.234,-328.306 612,-320 622.853,-313.895 623.254,-308.135 635,-304 721.268,-273.629 1001.07,-269.508 1102.69,-269.028"/>
<polygon fill="#f5ec93" stroke="#f5ec93" points="565.277,-342.343 554.317,-341.997 560.655,-344.25 556.033,-346.157 556.033,-346.157 556.033,-346.157 560.655,-344.25 557.749,-350.317 565.277,-342.343 565.277,-342.343"/>
<polygon fill="#f5ec93" stroke="#f5ec93" points="1102.79,-269.028 1112.81,-273.49 1107.79,-269.009 1112.79,-268.99 1112.79,-268.99 1112.79,-268.99 1107.79,-269.009 1112.77,-264.49 1102.79,-269.028 1102.79,-269.028"/>
<text text-anchor="middle" x="667" y="-308.3" font-family="Times,serif" font-size="14.00">participants</text>
</g>
<!-- Attempt -->
<g id="node16" class="node"><title>Attempt</title>
<ellipse fill="none" stroke="black" cx="533" cy="-268" rx="39.9464" ry="18"/>
<text text-anchor="middle" x="533" y="-264.3" font-family="Times,serif" font-size="14.00">Attempt</text>
</g>
<!-- Quiz&#45;&gt;Attempt -->
<g id="edge16" class="edge"><title>Quiz&#45;&gt;Attempt</title>
<path fill="none" stroke="#ea6e9b" d="M533,-329.339C533,-318.855 533,-306.718 533,-296.091"/>
<ellipse fill="none" stroke="#ea6e9b" cx="533" cy="-333.597" rx="4" ry="4"/>
<polygon fill="#ea6e9b" stroke="#ea6e9b" points="533,-296.084 537.5,-286.084 533,-291.084 533,-286.084 533,-286.084 533,-286.084 533,-291.084 528.5,-286.084 533,-296.084 533,-296.084"/>
</g>
<!-- Question -->
<g id="node17" class="node"><title>Question</title>
<ellipse fill="none" stroke="black" cx="480" cy="-180" rx="42.3701" ry="18"/>
<text text-anchor="middle" x="480" y="-176.3" font-family="Times,serif" font-size="14.00">Question</text>
</g>
<!-- Quiz&#45;&gt;Question -->
<g id="edge17" class="edge"><title>Quiz&#45;&gt;Question</title>
<path fill="none" stroke="#06ae11" d="M513.115,-334.299C492.705,-311.418 462.373,-272.422 451,-232 449.074,-225.155 448.589,-222.69 451,-216 452.445,-211.991 454.571,-208.116 457.026,-204.497"/>
<ellipse fill="none" stroke="#06ae11" cx="515.893" cy="-337.354" rx="4.00002" ry="4.00002"/>
<polygon fill="#06ae11" stroke="#06ae11" points="457.048,-204.469 466.739,-199.336 460.117,-200.521 463.186,-196.574 463.186,-196.574 463.186,-196.574 460.117,-200.521 459.634,-193.812 457.048,-204.469 457.048,-204.469"/>
</g>
<!-- User&#45;&gt;View -->
<g id="edge24" class="edge"><title>User&#45;&gt;View</title>
<path fill="none" stroke="#2d8619" d="M1104.66,-266.489C1009.46,-264.778 749.349,-257.809 668,-232 663.491,-230.57 426.139,-87.3353 342.104,-36.5824"/>
<ellipse fill="none" stroke="#2d8619" cx="1108.82" cy="-266.561" rx="4" ry="4"/>
<polygon fill="#2d8619" stroke="#2d8619" points="341.879,-36.447 335.646,-27.425 337.6,-33.862 333.32,-31.2769 333.32,-31.2769 333.32,-31.2769 337.6,-33.862 330.993,-35.1288 341.879,-36.447 341.879,-36.447"/>
</g>
<!-- User&#45;&gt;Category -->
<g id="edge33" class="edge"><title>User&#45;&gt;Category</title>
<path fill="none" stroke="#2feb29" d="M1102.91,-264.848C1057.3,-261.337 983.829,-252.575 967,-232 956.342,-218.97 969.952,-206.567 986.773,-197.256"/>
<polygon fill="#2feb29" stroke="#2feb29" points="1103.05,-264.858 1112.7,-270.064 1108.04,-265.217 1113.02,-265.576 1113.02,-265.576 1113.02,-265.576 1108.04,-265.217 1113.35,-261.088 1103.05,-264.858 1103.05,-264.858"/>
<polygon fill="#2feb29" stroke="#2feb29" points="986.84,-197.222 997.793,-196.691 991.294,-194.952 995.749,-192.681 995.749,-192.681 995.749,-192.681 991.294,-194.952 993.706,-188.672 986.84,-197.222 986.84,-197.222"/>
<text text-anchor="middle" x="1027" y="-220.3" font-family="Times,serif" font-size="14.00">subscribed_categories</text>
</g>
<!-- User&#45;&gt;ArticleProgress -->
<g id="edge29" class="edge"><title>User&#45;&gt;ArticleProgress</title>
<path fill="none" stroke="#58d7d1" d="M1104.38,-266.382C987.476,-264.144 616.304,-255.337 499,-232 463.531,-224.944 424.98,-211.066 396.55,-199.566"/>
<ellipse fill="none" stroke="#58d7d1" cx="1108.67" cy="-266.462" rx="4" ry="4"/>
<polygon fill="#58d7d1" stroke="#58d7d1" points="396.186,-199.417 388.649,-191.451 391.561,-197.515 386.937,-195.613 386.937,-195.613 386.937,-195.613 391.561,-197.515 385.226,-199.775 396.186,-199.417 396.186,-199.417"/>
</g>
<!-- User&#45;&gt;Enrollment -->
<g id="edge25" class="edge"><title>User&#45;&gt;Enrollment</title>
<path fill="none" stroke="#5c2855" d="M1171.25,-255.614C1181.66,-250.154 1192.09,-242.466 1198,-232 1204.28,-220.878 1216.73,-198.386 1197,-162 1161.43,-96.3995 1081.17,-55.1744 1030.52,-34.6764"/>
<ellipse fill="none" stroke="#5c2855" cx="1167.36" cy="-257.477" rx="4.00002" ry="4.00002"/>
<polygon fill="#5c2855" stroke="#5c2855" points="1030.43,-34.6374 1022.77,-26.7839 1025.77,-32.8039 1021.12,-30.9704 1021.12,-30.9704 1021.12,-30.9704 1025.77,-32.8039 1019.47,-35.157 1030.43,-34.6374 1030.43,-34.6374"/>
</g>
<!-- User&#45;&gt;Article -->
<g id="edge20" class="edge"><title>User&#45;&gt;Article</title>
<path fill="none" stroke="#743817" d="M1104.71,-269.833C1020.65,-272.185 810.752,-280.316 745,-304 668.386,-331.596 593.429,-393.877 556.587,-427.485"/>
<ellipse fill="none" stroke="#743817" cx="1108.91" cy="-269.72" rx="4" ry="4"/>
<polygon fill="#743817" stroke="#743817" points="556.242,-427.804 545.843,-431.286 552.569,-431.198 548.897,-434.591 548.897,-434.591 548.897,-434.591 552.569,-431.198 551.951,-437.896 556.242,-427.804 556.242,-427.804"/>
</g>
<!-- User&#45;&gt;Article -->
<g id="edge30" class="edge"><title>User&#45;&gt;Article</title>
<path fill="none" stroke="#cbe789" d="M1102.81,-270.914C1049.15,-274.301 947.237,-283.078 863,-304 747.235,-332.753 621.126,-399.498 564.097,-431.817"/>
<polygon fill="#cbe789" stroke="#cbe789" points="1102.89,-270.909 1113.14,-274.799 1107.88,-270.608 1112.87,-270.307 1112.87,-270.307 1112.87,-270.307 1107.88,-270.608 1112.6,-265.815 1102.89,-270.909 1102.89,-270.909"/>
<polygon fill="#cbe789" stroke="#cbe789" points="563.912,-431.922 552.997,-432.974 559.57,-434.402 555.228,-436.882 555.228,-436.882 555.228,-436.882 559.57,-434.402 557.46,-440.789 563.912,-431.922 563.912,-431.922"/>
<text text-anchor="middle" x="799" y="-352.3" font-family="Times,serif" font-size="14.00">passed_articles</text>
</g>
<!-- User&#45;&gt;Article -->
<g id="edge35" class="edge"><title>User&#45;&gt;Article</title>
<path fill="none" stroke="#93c5df" d="M1103.05,-272.076C1049.7,-277.917 949.57,-294.231 877,-338 858.414,-349.21 862.68,-362.948 844,-374 758.584,-424.537 641.02,-441.549 577.71,-447.217"/>
<polygon fill="#93c5df" stroke="#93c5df" points="1103.12,-272.068 1113.53,-275.518 1108.09,-271.555 1113.07,-271.042 1113.07,-271.042 1113.07,-271.042 1108.09,-271.555 1112.61,-266.566 1103.12,-272.068 1103.12,-272.068"/>
<polygon fill="#93c5df" stroke="#93c5df" points="577.621,-447.225 567.279,-443.578 572.638,-447.644 567.656,-448.062 567.656,-448.062 567.656,-448.062 572.638,-447.644 568.033,-452.547 577.621,-447.225 577.621,-447.225"/>
<text text-anchor="middle" x="929" y="-352.3" font-family="Times,serif" font-size="14.00">subscribed_articles</text>
</g>
<!-- User&#45;&gt;User -->
<g id="edge32" class="edge"><title>User&#45;&gt;User</title>
<path fill="none" stroke="#d5a62e" d="M1176.94,-271.632C1181.79,-271.01 1185,-269.799 1185,-268 1185,-266.201 1181.79,-264.99 1176.94,-264.368"/>
<polygon fill="#d5a62e" stroke="#d5a62e" points="1176.78,-271.64 1166.58,-267.621 1171.79,-271.878 1166.79,-272.116 1166.79,-272.116 1166.79,-272.116 1171.79,-271.878 1167.01,-276.611 1176.78,-271.64 1176.78,-271.64"/>
<polygon fill="#d5a62e" stroke="#d5a62e" points="1176.78,-264.36 1167.01,-259.389 1171.79,-264.122 1166.79,-263.884 1166.79,-263.884 1166.79,-263.884 1171.79,-264.122 1166.58,-268.379 1176.78,-264.36 1176.78,-264.36"/>
<text text-anchor="middle" x="1231.5" y="-264.3" font-family="Times,serif" font-size="14.00">subscribed_users</text>
</g>
<!-- User&#45;&gt;User -->
<g id="edge38" class="edge"><title>User&#45;&gt;User</title>
<path fill="none" stroke="#9f9d63" d="M1176.13,-274.702C1217.92,-278.117 1278,-275.883 1278,-268 1278,-260.117 1217.92,-257.883 1176.13,-261.298"/>
<polygon fill="#9f9d63" stroke="#9f9d63" points="1175.91,-274.68 1166.39,-269.233 1170.93,-274.196 1165.95,-273.712 1165.95,-273.712 1165.95,-273.712 1170.93,-274.196 1165.52,-278.191 1175.91,-274.68 1175.91,-274.68"/>
<polygon fill="#9f9d63" stroke="#9f9d63" points="1175.91,-261.32 1165.52,-257.809 1170.93,-261.804 1165.95,-262.288 1165.95,-262.288 1165.95,-262.288 1170.93,-261.804 1166.39,-266.767 1175.91,-261.32 1175.91,-261.32"/>
<text text-anchor="middle" x="1308.5" y="-264.3" font-family="Times,serif" font-size="14.00">subscribers</text>
</g>
<!-- User&#45;&gt;Comment -->
<g id="edge21" class="edge"><title>User&#45;&gt;Comment</title>
<path fill="none" stroke="#2a09bc" d="M1175.28,-266.65C1318.21,-265.063 1847.71,-257.478 1872,-232 1899.52,-203.135 1840.62,-190.448 1792.13,-184.98"/>
<ellipse fill="none" stroke="#2a09bc" cx="1171.21" cy="-266.694" rx="4" ry="4"/>
<polygon fill="#2a09bc" stroke="#2a09bc" points="1791.93,-184.959 1782.45,-179.444 1786.95,-184.439 1781.98,-183.92 1781.98,-183.92 1781.98,-183.92 1786.95,-184.439 1781.51,-188.396 1791.93,-184.959 1791.93,-184.959"/>
</g>
<!-- User&#45;&gt;Comment -->
<g id="edge28" class="edge"><title>User&#45;&gt;Comment</title>
<path fill="none" stroke="#8accb1" d="M1177.49,-266.584C1271.06,-265.147 1512.74,-258.866 1588,-232 1599.73,-227.813 1599.73,-221.297 1611,-216 1634.82,-204.803 1662.91,-196.57 1686.51,-190.912"/>
<polygon fill="#8accb1" stroke="#8accb1" points="1177.35,-266.586 1167.28,-262.23 1172.35,-266.658 1167.35,-266.73 1167.35,-266.73 1167.35,-266.73 1172.35,-266.658 1167.41,-271.229 1177.35,-266.586 1177.35,-266.586"/>
<polygon fill="#8accb1" stroke="#8accb1" points="1686.59,-190.895 1697.34,-193.028 1691.46,-189.769 1696.33,-188.643 1696.33,-188.643 1696.33,-188.643 1691.46,-189.769 1695.32,-184.259 1686.59,-190.895 1686.59,-190.895"/>
<text text-anchor="middle" x="1683.5" y="-220.3" font-family="Times,serif" font-size="14.00">comments_with_mentions</text>
</g>
<!-- Activity -->
<g id="node11" class="node"><title>Activity</title>
<ellipse fill="none" stroke="black" cx="1203" cy="-18" rx="39.4691" ry="18"/>
<text text-anchor="middle" x="1203" y="-14.3" font-family="Times,serif" font-size="14.00">Activity</text>
</g>
<!-- User&#45;&gt;Activity -->
<g id="edge39" class="edge"><title>User&#45;&gt;Activity</title>
<path fill="none" stroke="#c148ee" d="M1175.14,-266.936C1259.72,-266.3 1472.37,-261.703 1536,-232 1555.36,-222.96 1561.82,-217.744 1570,-198 1624.85,-65.5795 1364.13,-30.6732 1252.1,-21.8493"/>
<ellipse fill="none" stroke="#c148ee" cx="1171.12" cy="-266.961" rx="4" ry="4"/>
<polygon fill="#c148ee" stroke="#c148ee" points="1252.03,-21.8441 1242.39,-16.6096 1247.04,-21.4705 1242.06,-21.097 1242.06,-21.097 1242.06,-21.097 1247.04,-21.4705 1241.72,-25.5844 1252.03,-21.8441 1252.03,-21.8441"/>
</g>
<!-- User&#45;&gt;Course -->
<g id="edge23" class="edge"><title>User&#45;&gt;Course</title>
<path fill="none" stroke="#3b33a2" d="M1156.24,-245.1C1159.34,-241.086 1162.14,-236.674 1164,-232 1170.58,-215.423 1176.42,-180.451 1160,-162 1119.96,-117.004 941.602,-100.776 856.405,-95.4099"/>
<ellipse fill="none" stroke="#3b33a2" cx="1153.46" cy="-248.398" rx="4.00002" ry="4.00002"/>
<polygon fill="#3b33a2" stroke="#3b33a2" points="856.229,-95.3993 846.52,-90.3021 851.238,-95.0966 846.248,-94.7939 846.248,-94.7939 846.248,-94.7939 851.238,-95.0966 845.975,-99.2856 856.229,-95.3993 856.229,-95.3993"/>
</g>
<!-- User&#45;&gt;Course -->
<g id="edge26" class="edge"><title>User&#45;&gt;Course</title>
<path fill="none" stroke="#4e072f" d="M1102.44,-266.613C1032.12,-265.236 876.122,-259.093 748,-232 736.518,-229.572 654.833,-207.541 648,-198 612.425,-148.33 709.228,-116.311 768.583,-101.882"/>
<polygon fill="#4e072f" stroke="#4e072f" points="1102.58,-266.615 1112.5,-271.289 1107.58,-266.702 1112.58,-266.789 1112.58,-266.789 1112.58,-266.789 1107.58,-266.702 1112.66,-262.29 1102.58,-266.615 1102.58,-266.615"/>
<polygon fill="#4e072f" stroke="#4e072f" points="768.741,-101.845 779.506,-103.935 773.608,-100.7 778.475,-99.5543 778.475,-99.5543 778.475,-99.5543 773.608,-100.7 777.444,-95.1739 768.741,-101.845 768.741,-101.845"/>
<text text-anchor="middle" x="694" y="-176.3" font-family="Times,serif" font-size="14.00">enrolled_courses</text>
</g>
<!-- User&#45;&gt;Course -->
<g id="edge34" class="edge"><title>User&#45;&gt;Course</title>
<path fill="none" stroke="#8c76e1" d="M1102.77,-267.637C1045.49,-266.625 935.328,-256.518 868,-198 843.862,-177.021 828.124,-143.224 819.423,-119.66"/>
<polygon fill="#8c76e1" stroke="#8c76e1" points="1102.83,-267.637 1112.79,-272.229 1107.83,-267.683 1112.83,-267.729 1112.83,-267.729 1112.83,-267.729 1107.83,-267.683 1112.87,-263.229 1102.83,-267.637 1102.83,-267.637"/>
<polygon fill="#8c76e1" stroke="#8c76e1" points="819.326,-119.383 820.264,-108.457 817.672,-114.664 816.018,-109.946 816.018,-109.946 816.018,-109.946 817.672,-114.664 811.771,-111.434 819.326,-119.383 819.326,-119.383"/>
<text text-anchor="middle" x="921" y="-176.3" font-family="Times,serif" font-size="14.00">subscribed_courses</text>
</g>
<!-- User&#45;&gt;Subscription -->
<g id="edge31" class="edge"><title>User&#45;&gt;Subscription</title>
<path fill="none" stroke="#32c869" d="M1175.63,-266.704C1325.07,-265.3 1894.84,-258.238 1922,-232 1955.32,-199.814 1947.66,-170.402 1929,-128 1911.92,-89.1913 1873.44,-58.1733 1844.84,-39.2982"/>
<ellipse fill="none" stroke="#32c869" cx="1171.21" cy="-266.745" rx="4" ry="4"/>
<polygon fill="#32c869" stroke="#32c869" points="1844.73,-39.2304 1838.74,-30.0462 1840.52,-36.5327 1836.31,-33.835 1836.31,-33.835 1836.31,-33.835 1840.52,-36.5327 1833.89,-37.6239 1844.73,-39.2304 1844.73,-39.2304"/>
</g>
<!-- User&#45;&gt;Subscription -->
<g id="edge37" class="edge"><title>User&#45;&gt;Subscription</title>
<path fill="none" stroke="#dceed0" d="M1175.62,-266.687C1321.15,-265.235 1864.11,-258.084 1889,-232 1899.53,-220.965 1917.2,-198.961 1886,-162 1862.77,-134.484 1829.46,-172.15 1807,-144 1785.03,-116.464 1792.12,-73.6132 1800.25,-45.9261"/>
<ellipse fill="none" stroke="#dceed0" cx="1171.4" cy="-266.728" rx="4" ry="4"/>
<polygon fill="#dceed0" stroke="#dceed0" points="1800.34,-45.6526 1807.65,-37.4814 1801.85,-40.8867 1803.36,-36.1207 1803.36,-36.1207 1803.36,-36.1207 1801.85,-40.8867 1799.07,-34.76 1800.34,-45.6526 1800.34,-45.6526"/>
<text text-anchor="middle" x="1866" y="-132.3" font-family="Times,serif" font-size="14.00">reverse_subscriptions</text>
</g>
<!-- Review -->
<g id="node14" class="node"><title>Review</title>
<ellipse fill="none" stroke="black" cx="678" cy="-18" rx="37.5442" ry="18"/>
<text text-anchor="middle" x="678" y="-14.3" font-family="Times,serif" font-size="14.00">Review</text>
</g>
<!-- User&#45;&gt;Review -->
<g id="edge22" class="edge"><title>User&#45;&gt;Review</title>
<path fill="none" stroke="#61359c" d="M1104.66,-266.307C1013.02,-264.181 769.519,-256.341 693,-232 691.243,-231.441 636.91,-199.603 636,-198 607.784,-148.314 639.562,-80.5943 661.23,-44.3532"/>
<ellipse fill="none" stroke="#61359c" cx="1108.79" cy="-266.4" rx="4" ry="4"/>
<polygon fill="#61359c" stroke="#61359c" points="661.489,-43.9334 670.575,-37.7927 664.118,-39.6802 666.747,-35.4269 666.747,-35.4269 666.747,-35.4269 664.118,-39.6802 662.919,-33.0611 661.489,-43.9334 661.489,-43.9334"/>
</g>
<!-- Mention -->
<g id="node15" class="node"><title>Mention</title>
<ellipse fill="none" stroke="black" cx="1682" cy="-92" rx="40.4202" ry="18"/>
<text text-anchor="middle" x="1682" y="-88.3" font-family="Times,serif" font-size="14.00">Mention</text>
</g>
<!-- User&#45;&gt;Mention -->
<g id="edge27" class="edge"><title>User&#45;&gt;Mention</title>
<path fill="none" stroke="#ad7210" d="M1175.49,-266.782C1264.13,-265.808 1493.11,-260.522 1563,-232 1584.92,-223.056 1587.71,-215.18 1604,-198 1627.89,-172.796 1651.07,-140.234 1665.87,-118.1"/>
<ellipse fill="none" stroke="#ad7210" cx="1171.36" cy="-266.824" rx="4" ry="4"/>
<polygon fill="#ad7210" stroke="#ad7210" points="1665.98,-117.937 1675.24,-112.07 1668.73,-113.764 1671.49,-109.591 1671.49,-109.591 1671.49,-109.591 1668.73,-113.764 1667.73,-107.112 1665.98,-117.937 1665.98,-117.937"/>
</g>
<!-- User&#45;&gt;Question -->
<g id="edge36" class="edge"><title>User&#45;&gt;Question</title>
<path fill="none" stroke="#5f4f12" d="M1102.46,-266.564C976.778,-264.871 575.758,-257.505 524,-232 512.398,-226.283 502.609,-215.986 495.231,-206.135"/>
<polygon fill="#5f4f12" stroke="#5f4f12" points="1102.73,-266.567 1112.67,-271.197 1107.73,-266.632 1112.73,-266.698 1112.73,-266.698 1112.73,-266.698 1107.73,-266.632 1112.79,-262.198 1102.73,-266.567 1102.73,-266.567"/>
<polygon fill="#5f4f12" stroke="#5f4f12" points="495.088,-205.93 493.078,-195.15 492.236,-201.824 489.383,-197.718 489.383,-197.718 489.383,-197.718 492.236,-201.824 485.687,-200.285 495.088,-205.93 495.088,-205.93"/>
<text text-anchor="middle" x="582" y="-220.3" font-family="Times,serif" font-size="14.00">subscribed_questions</text>
</g>
<!-- Survey::Attempt -->
<g id="node18" class="node"><title>Survey::Attempt</title>
<ellipse fill="none" stroke="black" cx="1343" cy="-180" rx="69.3156" ry="18"/>
<text text-anchor="middle" x="1343" y="-176.3" font-family="Times,serif" font-size="14.00">Survey::Attempt</text>
</g>
<!-- User&#45;&gt;Survey::Attempt -->
<g id="edge40" class="edge"><title>User&#45;&gt;Survey::Attempt</title>
<path fill="none" stroke="#f5399c" d="M1175.75,-266.732C1232.1,-265.466 1337.6,-259.394 1361,-232 1367.16,-224.793 1365.66,-215.341 1361.59,-206.534"/>
<ellipse fill="none" stroke="#f5399c" cx="1171.47" cy="-266.814" rx="4" ry="4"/>
<polygon fill="#f5399c" stroke="#f5399c" points="1361.53,-206.428 1360.55,-195.506 1359.08,-202.07 1356.62,-197.712 1356.62,-197.712 1356.62,-197.712 1359.08,-202.07 1352.7,-199.918 1361.53,-206.428 1361.53,-206.428"/>
<text text-anchor="middle" x="1388.5" y="-220.3" font-family="Times,serif" font-size="14.00">attempts</text>
</g>
<!-- User&#45;&gt;Survey::Attempt -->
<g id="edge42" class="edge"><title>User&#45;&gt;Survey::Attempt</title>
<path fill="none" stroke="#47e440" d="M1173.19,-259.113C1194.05,-253.35 1221.07,-244.372 1243,-232 1252.61,-226.575 1252.61,-221.807 1262,-216 1272.28,-209.642 1283.92,-203.878 1295.1,-198.946"/>
<ellipse fill="none" stroke="#47e440" cx="1169.1" cy="-260.207" rx="4.00001" ry="4.00001"/>
<polygon fill="#47e440" stroke="#47e440" points="1295.15,-198.926 1306.11,-199.144 1299.75,-196.965 1304.35,-195.005 1304.35,-195.005 1304.35,-195.005 1299.75,-196.965 1302.58,-190.865 1295.15,-198.926 1295.15,-198.926"/>
<text text-anchor="middle" x="1309.5" y="-220.3" font-family="Times,serif" font-size="14.00">survey_tentatives</text>
</g>
<!-- Survey::Survey -->
<g id="node19" class="node"><title>Survey::Survey</title>
<ellipse fill="none" stroke="black" cx="1496" cy="-180" rx="65.4659" ry="18"/>
<text text-anchor="middle" x="1496" y="-176.3" font-family="Times,serif" font-size="14.00">Survey::Survey</text>
</g>
<!-- User&#45;&gt;Survey::Survey -->
<g id="edge41" class="edge"><title>User&#45;&gt;Survey::Survey</title>
<path fill="none" stroke="#873014" d="M1177.34,-267.387C1231.54,-266.823 1334.45,-261.476 1416,-232 1434.52,-225.307 1453.18,-213.745 1467.82,-203.319"/>
<polygon fill="#873014" stroke="#873014" points="1177.17,-267.388 1167.14,-262.942 1172.17,-267.415 1167.17,-267.442 1167.17,-267.442 1167.17,-267.442 1172.17,-267.415 1167.19,-271.942 1177.17,-267.388 1177.17,-267.388"/>
<polygon fill="#873014" stroke="#873014" points="1467.88,-203.275 1478.61,-200.986 1471.92,-200.316 1475.95,-197.358 1475.95,-197.358 1475.95,-197.358 1471.92,-200.316 1473.28,-193.73 1467.88,-203.275 1467.88,-203.275"/>
<text text-anchor="middle" x="1490" y="-220.3" font-family="Times,serif" font-size="14.00">passed_quizzes</text>
</g>
<!-- Comment&#45;&gt;User -->
<g id="edge45" class="edge"><title>Comment&#45;&gt;User</title>
<path fill="none" stroke="#afe6dc" d="M1756.34,-206.164C1760.9,-215.195 1762.72,-224.892 1756,-232 1736.08,-253.087 1308.66,-263.55 1177.76,-266.268"/>
<polygon fill="#afe6dc" stroke="#afe6dc" points="1756.27,-206.036 1754.95,-195.15 1753.68,-201.757 1751.1,-197.477 1751.1,-197.477 1751.1,-197.477 1753.68,-201.757 1747.24,-199.803 1756.27,-206.036 1756.27,-206.036"/>
<polygon fill="#afe6dc" stroke="#afe6dc" points="1177.44,-266.275 1167.35,-261.98 1172.44,-266.377 1167.44,-266.479 1167.44,-266.479 1167.44,-266.479 1172.44,-266.377 1167.53,-270.978 1177.44,-266.275 1177.44,-266.275"/>
<text text-anchor="middle" x="1806.5" y="-220.3" font-family="Times,serif" font-size="14.00">mentioned_users</text>
</g>
<!-- Comment&#45;&gt;Comment -->
<g id="edge43" class="edge"><title>Comment&#45;&gt;Comment</title>
<path fill="none" stroke="#8e18ef" d="M1786.4,-187.731C1795.01,-186.698 1801,-184.121 1801,-180 1801,-176.254 1796.05,-173.783 1788.68,-172.589"/>
<ellipse fill="none" stroke="#8e18ef" cx="1782.23" cy="-187.992" rx="4" ry="4"/>
<polygon fill="#8e18ef" stroke="#8e18ef" points="1788.21,-172.551 1778.6,-167.272 1783.23,-172.155 1778.24,-171.758 1778.24,-171.758 1778.24,-171.758 1783.23,-172.155 1777.88,-176.244 1788.21,-172.551 1788.21,-172.551"/>
<text text-anchor="middle" x="1839" y="-176.3" font-family="Times,serif" font-size="14.00">subcomments</text>
</g>
<!-- Comment&#45;&gt;Mention -->
<g id="edge44" class="edge"><title>Comment&#45;&gt;Mention</title>
<path fill="none" stroke="#f7566d" d="M1722.04,-155.606C1714.61,-143.982 1705.62,-129.927 1698.04,-118.082"/>
<ellipse fill="none" stroke="#f7566d" cx="1724.24" cy="-159.049" rx="4.00002" ry="4.00002"/>
<polygon fill="#f7566d" stroke="#f7566d" points="1697.96,-117.955 1696.36,-107.106 1695.27,-113.743 1692.57,-109.531 1692.57,-109.531 1692.57,-109.531 1695.27,-113.743 1688.78,-111.955 1697.96,-117.955 1697.96,-117.955"/>
</g>
<!-- Course&#45;&gt;View -->
<g id="edge52" class="edge"><title>Course&#45;&gt;View</title>
<path fill="none" stroke="#2654ab" d="M769.195,-84.9559C674.189,-71.2202 443.197,-37.8237 351.469,-24.5618"/>
<ellipse fill="none" stroke="#2654ab" cx="773.203" cy="-85.5353" rx="4.00001" ry="4.00001"/>
<polygon fill="#2654ab" stroke="#2654ab" points="351.397,-24.5515 342.144,-18.6668 346.448,-23.836 341.5,-23.1205 341.5,-23.1205 341.5,-23.1205 346.448,-23.836 340.856,-27.5742 351.397,-24.5515 351.397,-24.5515"/>
</g>
<!-- Course&#45;&gt;Section -->
<g id="edge46" class="edge"><title>Course&#45;&gt;Section</title>
<path fill="none" stroke="#7b3104" d="M768.585,-86.656C644.549,-73.9523 283.131,-36.9366 154.291,-23.7411"/>
<ellipse fill="none" stroke="#7b3104" cx="772.638" cy="-87.071" rx="4" ry="4"/>
<polygon fill="#7b3104" stroke="#7b3104" points="153.935,-23.7047 144.446,-18.2092 148.961,-23.1952 143.987,-22.6857 143.987,-22.6857 143.987,-22.6857 148.961,-23.1952 143.529,-27.1623 153.935,-23.7047 153.935,-23.7047"/>
</g>
<!-- Course&#45;&gt;Enrollment -->
<g id="edge50" class="edge"><title>Course&#45;&gt;Enrollment</title>
<path fill="none" stroke="#43037a" d="M845.265,-76.9022C873.754,-65.1812 914.387,-48.4635 944.675,-36.0022"/>
<ellipse fill="none" stroke="#43037a" cx="841.278" cy="-78.5428" rx="4.00001" ry="4.00001"/>
<polygon fill="#43037a" stroke="#43037a" points="944.869,-35.9225 955.829,-36.2792 949.493,-34.0201 954.117,-32.1176 954.117,-32.1176 954.117,-32.1176 949.493,-34.0201 952.405,-27.9561 944.869,-35.9225 944.869,-35.9225"/>
</g>
<!-- Course&#45;&gt;Article -->
<g id="edge47" class="edge"><title>Course&#45;&gt;Article</title>
<path fill="none" stroke="#a59fa1" d="M765.207,-92.746C620.724,-93.1619 184,-104.242 184,-223 184,-357 184,-357 184,-357 184,-425.652 424.456,-386.013 488,-412 496.571,-415.505 504.71,-421.286 511.649,-427.294"/>
<polygon fill="#a59fa1" stroke="#a59fa1" points="765.493,-92.7457 775.499,-97.2333 770.493,-92.7395 775.493,-92.7333 775.493,-92.7333 775.493,-92.7333 770.493,-92.7395 775.488,-88.2333 765.493,-92.7457 765.493,-92.7457"/>
<polygon fill="#a59fa1" stroke="#a59fa1" points="511.882,-427.511 516.131,-437.62 515.54,-430.919 519.198,-434.328 519.198,-434.328 519.198,-434.328 515.54,-430.919 522.266,-431.035 511.882,-427.511 511.882,-427.511"/>
</g>
<!-- Course&#45;&gt;Article -->
<g id="edge48" class="edge"><title>Course&#45;&gt;Article</title>
<path fill="none" stroke="#785abd" d="M766.505,-97.1708C641.49,-109.099 295.107,-143.669 279,-162 268.439,-174.019 273.184,-183.094 279,-198 290.615,-227.768 447.649,-372.482 508.835,-428.134"/>
<polygon fill="#785abd" stroke="#785abd" points="766.556,-97.166 776.937,-100.699 771.534,-96.6927 776.511,-96.2194 776.511,-96.2194 776.511,-96.2194 771.534,-96.6927 776.085,-91.7396 766.556,-97.166 766.556,-97.166"/>
<polygon fill="#785abd" stroke="#785abd" points="509.073,-428.349 513.45,-438.404 512.774,-431.711 516.475,-435.073 516.475,-435.073 516.475,-435.073 512.774,-431.711 519.501,-431.741 509.073,-428.349 509.073,-428.349"/>
<text text-anchor="middle" x="401.5" y="-264.3" font-family="Times,serif" font-size="14.00">different_articles</text>
</g>
<!-- Course&#45;&gt;User -->
<g id="edge51" class="edge"><title>Course&#45;&gt;User</title>
<path fill="none" stroke="#2bdf9d" d="M856.339,-94.8178C945.134,-99.525 1136.36,-115.207 1178,-162 1194.42,-180.451 1188.58,-215.423 1182,-232 1179.39,-238.571 1174.9,-244.623 1169.73,-249.782"/>
<polygon fill="#2bdf9d" stroke="#2bdf9d" points="856.277,-94.8147 846.517,-89.8148 851.283,-94.5619 846.29,-94.309 846.29,-94.309 846.29,-94.309 851.283,-94.5619 846.062,-98.8033 856.277,-94.8147 856.277,-94.8147"/>
<polygon fill="#2bdf9d" stroke="#2bdf9d" points="1169.36,-250.101 1158.86,-253.257 1165.59,-253.378 1161.81,-256.656 1161.81,-256.656 1161.81,-256.656 1165.59,-253.378 1164.76,-260.054 1169.36,-250.101 1169.36,-250.101"/>
</g>
<!-- Course&#45;&gt;User -->
<g id="edge54" class="edge"><title>Course&#45;&gt;User</title>
<path fill="none" stroke="#30fbbd" d="M790.784,-116.706C774.04,-139.361 755.712,-173.583 774,-198 813.071,-250.166 1017.57,-262.961 1102.73,-266.044"/>
<polygon fill="#30fbbd" stroke="#30fbbd" points="790.916,-116.536 800.601,-111.392 793.98,-112.585 797.045,-108.634 797.045,-108.634 797.045,-108.634 793.98,-112.585 793.489,-105.876 790.916,-116.536 790.916,-116.536"/>
<polygon fill="#30fbbd" stroke="#30fbbd" points="1102.74,-266.044 1112.59,-270.878 1107.74,-266.213 1112.74,-266.381 1112.74,-266.381 1112.74,-266.381 1107.74,-266.213 1112.89,-261.883 1102.74,-266.044 1102.74,-266.044"/>
<text text-anchor="middle" x="804.5" y="-176.3" font-family="Times,serif" font-size="14.00">subscribers</text>
</g>
<!-- Course&#45;&gt;Activity -->
<g id="edge55" class="edge"><title>Course&#45;&gt;Activity</title>
<path fill="none" stroke="#a36ea1" d="M851.803,-83.5056C925.493,-69.9707 1080.27,-41.5426 1157.36,-27.3836"/>
<ellipse fill="none" stroke="#a36ea1" cx="847.682" cy="-84.2625" rx="4.00001" ry="4.00001"/>
<polygon fill="#a36ea1" stroke="#a36ea1" points="1157.42,-27.372 1168.07,-29.9914 1162.34,-26.4687 1167.26,-25.5654 1167.26,-25.5654 1167.26,-25.5654 1162.34,-26.4687 1166.44,-21.1394 1157.42,-27.372 1157.42,-27.372"/>
</g>
<!-- Course&#45;&gt;Subscription -->
<g id="edge53" class="edge"><title>Course&#45;&gt;Subscription</title>
<path fill="none" stroke="#7a7899" d="M853.915,-87.705C939.632,-81.1415 1138.14,-66.0313 1305,-54 1463.79,-42.5509 1650.72,-29.7798 1746.45,-23.2903"/>
<ellipse fill="none" stroke="#7a7899" cx="849.721" cy="-88.0262" rx="4" ry="4"/>
<polygon fill="#7a7899" stroke="#7a7899" points="1746.57,-23.2824 1756.85,-27.0961 1751.56,-22.9444 1756.55,-22.6064 1756.55,-22.6064 1756.55,-22.6064 1751.56,-22.9444 1756.25,-18.1167 1746.57,-23.2824 1746.57,-23.2824"/>
</g>
<!-- Course&#45;&gt;Review -->
<g id="edge49" class="edge"><title>Course&#45;&gt;Review</title>
<path fill="none" stroke="#24d394" d="M780.45,-74.4619C759.733,-63.2464 732.359,-48.4276 711.12,-36.9294"/>
<ellipse fill="none" stroke="#24d394" cx="784.011" cy="-76.3893" rx="4.00002" ry="4.00002"/>
<polygon fill="#24d394" stroke="#24d394" points="710.929,-36.8261 704.277,-28.1081 706.532,-34.4458 702.135,-32.0654 702.135,-32.0654 702.135,-32.0654 706.532,-34.4458 699.992,-36.0227 710.929,-36.8261 710.929,-36.8261"/>
</g>
</g>
</svg>
